<svg width="390" height="390" viewBox="0 0 390 390" fill="none" xmlns="http://www.w3.org/2000/svg">
<path d="M90.3082 59.3448C91.5418 58.7267 113.291 59.4538 117.092 59.0927C120.304 58.7876 123.753 55.7853 126.89 54.6283C138.471 50.3562 155.273 50.5957 167.002 54.4896C177.328 57.9177 185.661 63.6444 194.029 70.4141C195.956 71.9726 198.19 73.5063 199.921 75.2674C203.328 77.6843 206.542 80.3964 209.759 83.0575C211.203 84.2519 212.961 85.4642 214.166 86.8863L212.634 86.8703C208.923 84.1045 205.404 81.1269 201.651 78.4026C201.002 79.2931 200.407 80.0925 199.562 80.8101L199.439 80.7685C199.929 79.658 200.692 78.7603 201.438 77.8154L200.473 77.0026C197.78 75.2358 195.297 73.0523 192.786 71.0395C188.835 67.8719 184.823 64.806 180.53 62.1095C167.746 54.0806 148.551 50.6677 133.774 54.0737C131.83 54.522 123.448 56.9469 122.415 58.5957L122.681 59.2679C116.701 59.5573 110.642 59.3597 104.654 59.362C99.9089 59.3639 95.0408 59.5985 90.3082 59.3448Z" fill="#A5A5A5"/>
<path d="M122.681 59.2677L122.415 58.5955C123.448 56.9467 131.83 54.5218 133.774 54.0735C148.551 50.6675 167.746 54.0804 180.53 62.1093C184.823 64.8058 188.835 67.8717 192.786 71.0393C195.297 73.0521 197.78 75.2356 200.473 77.0024L201.438 77.8152C200.692 78.7601 199.929 79.6578 199.439 80.7684L199.562 80.8099C200.407 80.0923 201.002 79.2929 201.651 78.4025C205.404 81.1267 208.923 84.1043 212.634 86.8701C202.014 87.1626 191.333 86.9588 180.707 86.9128L142.379 87.0164C142.399 85.3166 142.393 83.6145 142.549 81.9205C140.71 78.6523 136.582 74.2861 134.065 71.1558L128.024 63.6316C126.981 62.3443 125.932 60.8715 124.731 59.7285C124.149 59.1748 123.431 59.2688 122.681 59.2677Z" fill="#FEEEEB"/>
<path d="M122.681 59.2679C123.431 59.269 124.149 59.1749 124.731 59.7287C125.932 60.8717 126.981 62.3444 128.024 63.6318L134.065 71.156C136.582 74.2863 140.71 78.6525 142.549 81.9206C142.393 83.6147 142.399 85.3167 142.379 87.0165L180.707 86.9129C191.333 86.959 202.014 87.1628 212.634 86.8703L214.166 86.8863L298.613 86.8973C310.43 86.9217 322.281 86.697 334.093 86.9316C334.364 100.6 334.1 114.305 334.17 127.978C334.181 130.193 333.811 137.095 334.255 138.704C334.277 138.784 334.505 139.057 334.534 139.086C334.692 139.25 334.966 139.41 335.146 139.536C336.778 140.394 338.325 141.45 339.894 142.419C344.632 145.346 349.123 148.411 353.682 151.603C355.28 152.724 357.015 153.686 358.589 154.816C364.064 158.71 369.325 162.874 374.373 167.307C376.249 168.948 378.128 170.416 379.81 172.285C382.752 175.555 385.354 179.616 386.645 183.834C389.231 192.284 387.102 200.916 383.007 208.498C378.462 216.915 368.116 228.774 371.055 238.637C372.043 241.956 373.885 245.025 375.594 248.016C381.377 258.139 386.797 265.909 386.835 278.112C386.854 283.995 385.765 289.017 383.011 294.22C382.369 295.438 381.685 296.631 380.958 297.799C380.233 298.968 379.467 300.11 378.66 301.224C377.853 302.339 377.008 303.424 376.124 304.478C375.241 305.533 374.321 306.556 373.365 307.546C371.404 309.547 369.257 311.36 367.328 313.393C367.046 328.104 367.322 342.872 367.337 357.589C369.755 357.608 372.423 357.307 374.805 357.657C375.277 357.727 375.577 357.764 375.875 358.156C374.892 358.992 370.976 358.586 369.608 358.573L110.907 358.468L38.818 358.535C27.5058 358.543 16.1544 358.791 4.84831 358.595C4.30304 358.586 3.92838 358.685 3.548 358.283L3.59101 357.893C5.15292 357.224 13.2293 357.593 15.5781 357.581C16.5813 346.636 17.8599 335.723 19.4138 324.842C22.1249 305.809 25.0541 289.388 36.9677 273.67C39.9655 269.715 43.0752 266.084 46.7627 262.749C46.0196 261.896 44.6017 261.255 43.6412 260.604C40.5783 258.529 38.0932 255.442 36.3325 252.217C34.7162 249.258 33.7764 246.097 33.2645 242.772C31.8319 233.465 34.3473 225.938 34.6536 216.911C34.72 215.017 34.7143 213.123 34.6365 211.229C34.5586 209.336 34.4089 207.448 34.1872 205.565C33.9656 203.683 33.6727 201.811 33.3085 199.951C32.9443 198.091 32.5099 196.248 32.0053 194.421C31.5353 192.666 30.9688 189.014 29.979 187.676C29.4324 187.53 29.3475 187.689 28.8661 187.954L28.6952 187.762C28.5044 185.623 28.8521 183.478 28.6783 181.347C28.5419 179.674 26.9312 174.472 26.3425 172.776C25.7563 171.086 23.2229 167.094 23.3737 165.546L23.6195 165.59C24.1498 166.298 24.7092 167.328 24.8911 168.199C25.0013 168.726 24.8317 168.199 25.0551 168.802C25.3609 168.297 25.5055 167.596 25.5711 167.008C25.6842 165.995 25.6259 164.931 25.6887 163.907C25.8792 160.797 26.1093 157.731 26.6968 154.664C27.7462 149.188 29.532 143.807 32.7837 139.238C33.3818 138.397 33.9354 137.506 34.798 136.917C34.9233 128.219 34.8121 119.502 34.8127 110.802L34.8527 59.3239C41.0106 59.1376 47.2403 59.3425 53.4037 59.349L90.3082 59.3448C95.0408 59.5984 99.9089 59.3638 104.654 59.3619C110.642 59.3597 116.701 59.5573 122.681 59.2679Z" fill="#A5A5A5"/>
<path d="M237.902 201.257C238.856 201.406 239.828 201.643 240.526 202.354C241.08 202.92 241.299 203.585 241.279 204.369C241.186 208.05 236.69 212.067 234.153 214.401C233.913 214.614 233.749 214.69 233.459 214.817C232.615 214.737 231.999 214.289 231.291 213.859C233.393 209.64 235.634 205.392 237.902 201.257Z" fill="#FCFBFC"/>
<path d="M244.364 215.344C244.71 215.348 245.05 215.346 245.39 215.424C246.084 215.585 246.932 216.005 247.232 216.689C247.558 217.432 247.26 218.322 246.912 219C245.606 221.542 240.771 225.974 238.081 226.828C237.211 226.764 236.03 226.681 235.431 225.945C235.152 225.602 235.065 225.208 235.122 224.775C235.444 222.36 242.298 216.978 244.364 215.344Z" fill="#FCFBFC"/>
<path d="M240.636 210.085C241.22 210.031 242.03 209.894 242.597 210.097C243.207 210.316 243.873 210.991 244.127 211.592C244.335 212.081 244.277 212.631 244.114 213.121C243.375 215.34 237.718 220.056 235.593 221.187C234.796 221.293 233.908 221.482 233.135 221.183C232.664 221.001 232.288 220.702 232.12 220.206C231.893 219.535 232.178 218.678 232.493 218.077C233.364 216.417 238.941 210.6 240.636 210.085Z" fill="#FCFBFC"/>
<path d="M248.603 218.75C249.117 219.789 249.334 221.024 249.384 222.173C249.5 224.839 248.424 227.386 246.585 229.296C244.112 231.864 240.803 232.643 237.368 232.689C236.986 232.354 236.792 232.104 236.566 231.648C236.559 231.079 236.729 230.775 237.081 230.349C238.124 229.089 239.481 228.038 240.711 226.965C243.591 224.453 246.44 221.93 248.603 218.75Z" fill="#FCFBFC"/>
<path d="M349.176 280.22C354.868 280.144 360.638 280.045 366.326 280.245C366.463 282.713 366.374 285.232 366.381 287.706L360.365 287.703L343.355 287.642C343.36 285.205 343.354 282.77 343.474 280.334C345.368 280.229 347.279 280.248 349.176 280.22Z" fill="#28292C"/>
<path d="M285.285 296.589C292.458 296.565 299.734 296.312 306.893 296.625C306.984 311.313 306.993 326.001 306.922 340.689L306.937 351.703C306.943 353.565 307.158 355.758 306.826 357.574C306.65 355.634 306.76 353.615 306.758 351.663L306.759 340.519L306.799 304.555C299.638 304.347 292.425 304.499 285.259 304.497L285.285 296.589Z" fill="#28292C"/>
<path d="M124.674 61.3975C126.756 63.266 129.704 67.4527 131.571 69.7691C134.582 73.5042 138.867 78.2318 141.357 82.1452C141.442 83.7661 141.37 85.3981 141.335 87.0205L124.542 87.0761L124.674 61.3975Z" fill="#FCFBFC"/>
<path d="M312.615 284.827C319.91 284.727 327.312 284.584 334.601 284.824L334.609 297.077C327.301 296.946 319.973 297.061 312.663 297.062L312.615 284.827Z" fill="#A5A5A5"/>
<path d="M81.3417 93.4054C87.3947 93.1426 93.5474 93.3448 99.6122 93.3365C99.6183 98.7797 99.9626 104.466 99.5452 109.885L81.2232 109.875C81.16 106.718 81.1866 103.553 81.1771 100.395C81.1699 98.1117 81.0172 95.6666 81.3417 93.4054Z" fill="#FCFBFC"/>
<path d="M153.162 270.457C165.748 270.21 178.375 270.413 190.966 270.408C189.646 273.402 188.259 276.149 186.278 278.762C184.439 280.924 182.263 282.494 179.395 282.968C171.187 284.324 159.524 275.088 153.162 270.457Z" fill="#FEEEEB"/>
<path d="M81.2605 110.499C87.3672 110.42 93.4831 110.488 99.5909 110.487C99.6054 116.162 99.8594 121.955 99.5574 127.62L81.2575 127.615C81.1803 121.909 81.1813 116.204 81.2605 110.499Z" fill="#FCFBFC"/>
<path d="M76.683 93.4065L80.5228 93.4122L80.5015 109.857C74.1602 109.756 67.804 109.857 61.4612 109.869C61.0556 109.853 61.0224 109.917 60.6915 109.648C60.1133 107.431 60.5376 103.094 60.5608 100.695C61.3424 100.632 62.1566 100.66 62.8205 100.201L62.7801 99.9329C62.0664 99.5025 61.3599 99.5143 60.5509 99.4621L60.5658 93.4407C65.9256 93.2926 71.3193 93.4103 76.683 93.4065Z" fill="#FCFBFC"/>
<path d="M60.5144 110.478C67.1676 110.342 73.8464 110.464 80.5023 110.466C80.5933 116.169 80.5293 121.884 80.54 127.589L60.4691 127.606C60.503 121.897 60.4207 116.187 60.5144 110.478Z" fill="#FCFBFC"/>
<path d="M133.161 257.077C136.694 257.385 140.278 257.293 143.823 257.294L159.15 257.276C172.04 257.261 184.978 257.507 197.863 257.251C195.702 261.217 193.866 265.365 191.606 269.273C182.346 269.564 173.012 269.35 163.745 269.349C159.876 269.348 155.727 269.045 151.891 269.474C145.984 264.892 139.533 260.973 133.161 257.077Z" fill="#A5A5A5"/>
<path d="M285.259 304.497C292.425 304.499 299.638 304.347 306.799 304.555L306.759 340.519L306.758 351.663C306.76 353.615 306.65 355.634 306.826 357.574L285.337 357.537L285.259 304.497Z" fill="#FCFBFC"/>
<path d="M312.663 297.061C319.973 297.061 327.301 296.946 334.609 297.077L334.585 357.463C327.336 357.759 320.059 357.663 312.806 357.644C312.478 349.974 312.712 342.194 312.731 334.513C312.801 322.029 312.778 309.545 312.663 297.061Z" fill="#FCFBFC"/>
<path d="M343.427 298.021C346.169 297.851 348.979 297.944 351.728 297.944L366.326 297.96L366.363 336.299C366.362 343.336 366.474 350.39 366.307 357.424L343.319 357.392L343.321 318.53C343.318 311.754 342.961 304.768 343.427 298.021Z" fill="#28292C"/>
<path d="M110.542 156.009C111.876 155.873 113.324 155.958 114.633 156.254C114.807 156.291 114.979 156.334 115.15 156.38C115.321 156.427 115.491 156.478 115.66 156.533C115.828 156.588 115.995 156.647 116.161 156.711C116.327 156.775 116.49 156.843 116.653 156.914C116.815 156.986 116.975 157.063 117.133 157.143C117.291 157.222 117.448 157.307 117.601 157.395C117.755 157.483 117.907 157.575 118.056 157.67C118.206 157.766 118.353 157.866 118.497 157.969C118.641 158.072 118.783 158.178 118.922 158.289C119.061 158.399 119.197 158.513 119.33 158.63C119.463 158.747 119.593 158.868 119.72 158.992C119.847 159.116 119.971 159.243 120.091 159.373C120.212 159.503 120.329 159.636 120.443 159.772C120.557 159.908 120.667 160.047 120.774 160.189C120.881 160.33 120.984 160.475 121.083 160.622C121.182 160.768 121.278 160.918 121.37 161.07C123.013 163.776 123.393 167.028 122.641 170.083C121.455 174.901 118.165 177.259 114.153 179.706C112.851 177.584 111.525 175.608 110.927 173.161C109.349 172.672 107.917 172.334 106.258 172.309C103.648 172.268 94.0574 174.791 92.2617 176.732C92.021 176.992 92.0929 176.873 92.1025 177.267C92.6208 177.507 93.1548 177.094 93.7546 177.174C94.9722 178.871 95.9811 180.698 96.4846 182.74C97.9677 188.757 95.0358 195.109 92.0278 200.159C87.5287 200.136 88.474 198.38 85.1682 196.91C83.1374 196.007 80.6283 195.724 78.5568 196.64C78.3801 196.717 78.2078 196.803 78.04 196.898C77.8722 196.993 77.7098 197.097 77.5529 197.209C77.3962 197.322 77.2458 197.442 77.1015 197.57C76.9573 197.699 76.8203 197.834 76.6906 197.977C76.5609 198.119 76.4389 198.268 76.3246 198.424C76.2103 198.579 76.1047 198.74 76.0077 198.907C75.9105 199.074 75.8224 199.245 75.7434 199.421C75.6642 199.597 75.5945 199.777 75.5343 199.96C74.8602 201.965 75.3271 203.519 76.2317 205.315C77.8835 207.929 80.3594 209.788 82.7577 211.673C82.2732 213.622 81.7581 215.563 81.2122 217.495C79.7751 216.029 78.3923 214.514 77.0638 212.948C72.3915 207.339 66.7464 198.188 65.0649 191.138C64.9257 190.538 64.8115 189.932 64.7221 189.322C64.6327 188.712 64.5685 188.1 64.5294 187.484C64.4905 186.869 64.4771 186.253 64.489 185.637C64.5009 185.02 64.5381 184.405 64.6006 183.792C65.1597 177.906 68.3117 172.536 72.8314 168.801C77.2394 165.159 83.0308 162.971 88.7581 162.964C91.1088 162.961 93.4975 163.303 95.8387 163.528C97.1073 162.967 98.2259 162.088 99.3647 161.305C102.974 158.821 106.148 156.777 110.542 156.009Z" fill="#A5A5A5"/>
<path d="M104.274 173.54C105.61 173.389 108.442 173.104 109.561 173.974C110.516 174.715 111.81 177.664 112.448 178.8C114.387 182.25 116.313 185.732 117.847 189.386C121.151 197.253 122.909 206.024 124.26 214.41C124.739 217.387 125.802 220.779 123.825 223.398C120.096 228.334 112.357 228.959 106.786 230.095C106.256 230.203 106.062 230.284 105.757 230.728L105.866 231.121C105.915 231.142 105.961 231.171 106.013 231.185C107.086 231.493 114.711 229.573 116.005 229.165C117.441 228.711 118.836 228.114 120.225 227.534C116.356 230.765 108.556 231.12 103.664 231.437C103.432 231.807 103.445 231.786 103.527 232.216C104.566 232.848 108.874 232.057 110.221 231.855C110.694 234.404 110.814 237.101 111.105 239.684C111.429 242.546 112.239 246.117 112.006 248.925C111.82 251.169 110.789 253.547 110.16 255.714C108.966 259.826 107.86 263.969 106.551 268.046C105.652 268.172 102.058 264.945 101.2 264.288C92.7427 257.814 84.1574 251.421 75.1078 245.794C76.8193 239.521 78.4306 233.222 79.9416 226.897C80.5784 224.293 82.7352 214.077 83.807 212.334C84.1897 212.271 84.4978 212.196 84.8536 212.041L84.9899 211.577C83.1043 210.396 81.1962 209.205 79.5752 207.667C78.021 206.194 76.2709 204.079 76.2919 201.832C76.304 200.535 76.9667 199.027 77.952 198.177C79.0059 197.267 80.4668 197.048 81.8143 197.158C84.534 197.38 86.545 198.865 88.2714 200.849C89.7057 200.934 91.0323 201.155 92.4388 201.448C94.3499 198.922 95.956 195.539 96.8445 192.496C98.83 185.696 98.0587 182.601 94.8066 176.597C97.866 175.101 100.91 174.073 104.274 173.54Z" fill="#FCFBFC"/>
<path d="M104.787 195.896C105.155 195.923 105.564 195.915 105.845 196.193C106.54 196.883 106.541 197.936 106.518 198.847C106.286 198.889 106.054 198.887 105.82 198.896C105.026 198.115 104.968 196.941 104.787 195.896Z" fill="#28292C"/>
<path d="M107.715 184.703C108.034 184.702 108.163 184.772 108.449 184.9L108.555 185.205C107.993 186.249 104.709 187.436 103.584 187.983C103.174 187.972 103.147 187.951 102.815 187.706L102.922 187.383C104.241 186.152 106.092 185.436 107.715 184.703Z" fill="#28292C"/>
<path d="M105.994 212.573C106.683 212.784 107.28 213.272 107.933 213.573C110.038 214.545 111.447 214.059 113.579 213.751L113.828 213.955L113.731 214.483C112.801 214.95 111.873 215.191 110.832 215.2C109.411 215.213 106.913 215.037 105.994 213.815C105.648 213.356 105.85 213.067 105.994 212.573Z" fill="#28292C"/>
<path d="M113.064 193.204L113.664 193.39C114.719 194.627 117.553 203.775 117.561 205.507C117.136 206.486 116.21 206.949 115.31 207.427C115.226 207.359 115.132 207.302 115.057 207.223C114.743 206.889 114.717 206.758 114.785 206.344C115.35 205.966 115.976 205.611 116.193 204.922C117.001 202.356 112.374 196.014 113.064 193.204Z" fill="#28292C"/>
<path d="M227.759 203.166C228.106 203.19 228.385 203.203 228.68 203.412C229.089 203.703 229.253 204.128 229.304 204.608C229.651 207.842 222.815 217.352 220.615 220.069C221.713 222.072 221.158 225.274 222.337 226.628C222.548 226.87 222.731 226.818 223.029 226.856C225.611 225.804 229.385 217.199 230.933 214.539C231.573 215.024 232.237 215.4 232.939 215.785C232.192 216.813 231.305 218.076 231.127 219.359C231.04 219.989 231.149 220.587 231.559 221.088C232.432 222.154 233.877 222.215 235.138 222.364C234.667 223.047 234.132 223.7 234.026 224.549C233.938 225.257 234.079 225.935 234.554 226.483C235.526 227.602 236.947 227.678 238.312 227.771C237.678 228.228 236.986 228.804 236.479 229.406C235.965 230.019 235.48 230.998 235.664 231.823C235.797 232.419 236.118 232.868 236.627 233.196C238.145 234.177 239.981 233.639 241.599 233.278C240.635 234.909 239.65 236.544 238.566 238.099C237.297 239.92 235.913 241.578 234.919 243.577C231.795 249.861 229.342 256.529 226.634 262.999C223.483 270.529 220.117 277.972 216.881 285.464C213.133 294.14 209.379 302.813 203.948 310.595C197.911 318.673 189.145 323.893 179.242 325.623C179.063 320.283 179.2 314.896 179.216 309.55L179.206 284.178C179.812 284.037 180.423 283.898 181.016 283.71C183.401 282.954 185.445 281.435 187.003 279.493C189.386 276.523 190.989 272.974 192.705 269.6L198.048 259.166C202.019 251.501 206.292 243.995 210.194 236.294C208.298 231.496 208.732 226.991 210.654 222.254C213.411 215.462 220.833 206.058 227.759 203.166Z" fill="#FCFBFC"/>
<path d="M36.7915 60.2717L91.2455 60.2065L111.707 60.213C115.665 60.2252 119.649 60.1559 123.603 60.3433C123.941 69.2074 123.645 78.1778 123.622 87.0529C116.439 87.075 109.255 87.0456 102.072 86.9646C102.157 85.2519 101.919 83.5258 102.145 81.826C102.254 81.7838 102.36 81.735 102.47 81.6992C102.592 81.6596 102.717 81.6326 102.84 81.5994C102.718 80.966 102.107 80.4283 101.685 79.9526C101.135 80.346 100.179 80.8575 100 81.5031L100.257 81.7076C100.669 81.6897 101.006 81.6501 101.401 81.7898C101.387 83.4016 101.416 85.0279 101.295 86.6355C100.796 86.9966 100.302 86.7056 99.7273 87.032C99.3228 88.7729 99.5742 90.9141 99.5959 92.7144L81.2582 92.7076C81.2567 89.8012 81.7176 80.5372 81.0796 78.4402L80.6706 78.5937C80.3686 80.4591 80.5594 82.4442 80.5685 84.3294L80.5285 92.719L60.6046 92.7346C60.6031 91.0276 60.9485 80.1228 60.2165 79.3211C59.4057 80.7874 59.8962 90.5679 59.9168 92.7342C56.5565 92.7384 46.5414 92.278 43.8251 93.1273C44.468 93.6864 58.1378 93.4213 59.9286 93.424C59.9568 95.0917 60.1179 96.881 59.9678 98.5366C59.9217 99.0458 60.0025 99.1231 59.5946 99.4598C59.1768 99.4949 58.676 99.483 58.3023 99.686C58.0803 99.8064 58.1127 100.019 58.0624 100.246C58.5964 100.855 59.2442 100.505 59.8296 101.014C60.1465 103.909 59.9286 106.972 59.8962 109.887L53.7964 109.88C52.1678 109.871 44.5034 109.487 43.6328 110.245C44.6622 110.784 57.6035 110.467 59.8593 110.468L59.8292 127.612C57.5817 127.611 45.2507 127.16 44.0868 127.965C45.2183 128.69 57.3841 128.305 59.7999 128.306C59.7671 130.375 59.3748 133.588 60.1621 135.484C60.1899 135.551 60.2287 135.613 60.2622 135.677L60.2603 135.678L60.1476 135.344L60.3773 135.199C60.597 132.918 60.5273 130.613 60.522 128.323L80.5495 128.293C80.5434 130.555 80.3693 132.98 80.6039 135.221L80.9025 135.426C81.5138 134.586 81.2495 129.71 81.2716 128.293C87.3817 128.293 93.4937 128.218 99.6035 128.279C99.7068 134.81 99.7375 141.342 99.6957 147.874C92.1025 147.611 84.4403 147.812 76.8384 147.826L35.8299 147.819C35.6573 141.774 35.7649 135.684 35.7605 129.635L35.7396 100.816C35.7702 87.4391 35.4662 73.9959 35.8437 60.6285C36.1787 60.2267 36.2933 60.3307 36.7915 60.2717Z" fill="#FCFBFC"/>
<path d="M46.7627 262.749C46.0196 261.896 44.6017 261.255 43.6411 260.604C40.5783 258.529 38.0932 255.442 36.3325 252.217C34.7162 249.258 33.7764 246.097 33.2645 242.772C31.8319 233.465 34.3473 225.938 34.6536 216.911C34.72 215.017 34.7143 213.123 34.6365 211.229C34.5586 209.336 34.4089 207.448 34.1872 205.565C33.9656 203.683 33.6726 201.811 33.3085 199.951C32.9443 198.091 32.5099 196.248 32.0053 194.421C31.5353 192.666 30.9688 189.014 29.979 187.676C29.4324 187.53 29.3475 187.689 28.8661 187.954L28.6952 187.762C28.5044 185.623 28.8521 183.478 28.6783 181.347C28.5419 179.674 26.9312 174.472 26.3425 172.776C25.7563 171.086 23.2229 167.094 23.3736 165.546L23.6194 165.59C24.1498 166.298 24.7092 167.328 24.8911 168.199C25.0012 168.726 24.8317 168.199 25.0551 168.802C25.3609 168.297 25.5055 167.596 25.571 167.008C25.6842 165.995 25.6259 164.931 25.6887 163.907C25.8792 160.797 26.1092 157.731 26.6968 154.664C27.7462 149.188 29.532 143.807 32.7837 139.238C33.3818 138.397 33.9354 137.506 34.798 136.917C34.7887 140.849 34.6775 144.808 34.8015 148.736L81.2183 148.756C87.395 148.754 93.5928 148.649 99.7673 148.778C99.7749 152.385 99.9379 156.066 99.64 159.66C98.3386 160.615 97.118 161.711 95.6604 162.421C93.1932 162.256 90.7047 161.866 88.2318 161.902C82.2473 161.989 75.9795 164.61 71.5098 168.554C71.2175 168.81 70.9319 169.073 70.6528 169.343C70.3735 169.613 70.1011 169.89 69.8355 170.173C69.5697 170.456 69.3111 170.746 69.0597 171.042C68.8083 171.338 68.5643 171.64 68.3277 171.948C68.0911 172.256 67.862 172.569 67.6406 172.889C67.4195 173.208 67.2062 173.532 67.0008 173.862C66.7954 174.191 66.5982 174.526 66.4093 174.865C66.2204 175.204 66.0399 175.548 65.8677 175.896C65.6958 176.244 65.5324 176.596 65.3776 176.953C65.2227 177.309 65.0767 177.669 64.9396 178.032C64.8025 178.395 64.6742 178.762 64.5549 179.131C64.4358 179.501 64.3257 179.873 64.2247 180.248C64.1239 180.623 64.0322 181.001 63.9497 181.38C63.8672 181.76 63.7941 182.141 63.7303 182.524C63.6666 182.907 63.6124 183.292 63.5677 183.677C63.5228 184.063 63.4873 184.45 63.4614 184.837C62.8608 194.711 70.9579 207.63 77.3982 214.805C78.5263 216.061 79.6864 217.346 80.9345 218.483C79.6906 223.851 78.2917 229.167 76.9686 234.514C76.0744 238.127 75.3614 242.014 74.041 245.488C63.8347 250.305 55.1408 255.036 46.7627 262.749Z" fill="#FEEEEB"/>
<path d="M100.612 87.9192C125.294 88.3774 150.031 87.9474 174.718 87.9683L333.04 87.9428L333.136 269.385L259.098 269.251C247.82 269.245 236.527 269.434 225.251 269.288C226.668 265.167 228.585 261.168 230.159 257.096C233.748 257.416 237.505 257.176 241.118 257.166L261.191 257.132L321.705 257.263C321.837 245.769 321.878 234.275 321.828 222.78L321.63 101.004C308.975 100.78 296.297 100.963 283.64 100.95L200.091 101.034L156.783 101.036C142.251 100.94 127.617 100.666 113.095 101.066L113.137 154.858C108.49 154.538 104.498 156.461 100.775 159.082L100.612 87.9192Z" fill="#A5A5A5"/>
<path d="M74.2257 246.403C81.0436 250.797 87.6973 255.426 94.1869 260.292C98.4152 263.479 102.569 267.155 107.019 269.996C108.064 267.277 108.786 264.388 109.592 261.59C110.78 257.449 111.996 253.316 113.24 249.191C123.203 252.377 131.992 257.444 140.752 263.077C149.919 268.973 161.857 279.503 171.683 283.095C173.847 283.886 175.886 284.23 178.18 284.327L178.175 325.769C166.422 326.992 155.454 324.599 144.711 319.916C144.483 316.883 143.967 298.126 143.37 296.965L143.031 296.867L142.708 297.173C142.207 298.593 145.157 351.282 145.449 357.502L137.966 357.472L58.6287 357.467L60.0513 334.743C60.2364 331.666 60.7006 328.067 60.6355 325.032C60.6241 324.502 60.4451 324.16 60.1095 323.756L59.8048 323.793C59.4845 324.39 59.4148 325.058 59.352 325.723C59.0679 328.73 59.0545 331.837 58.8755 334.861L57.5269 357.512L16.7756 357.506C17.4148 348.613 18.5766 339.749 19.73 330.91C21.0826 320.545 22.4058 309.875 25.2993 299.815C25.4607 299.238 25.6288 298.663 25.8034 298.09C25.9781 297.517 26.1594 296.946 26.3472 296.377C26.535 295.808 26.7293 295.241 26.9302 294.677C27.1311 294.112 27.3384 293.55 27.5522 292.99C27.766 292.43 27.9863 291.873 28.2129 291.319C28.4395 290.764 28.6725 290.212 28.9118 289.663C29.1512 289.113 29.3968 288.567 29.6487 288.023C29.9007 287.48 30.1588 286.939 30.4232 286.402C30.6875 285.864 30.958 285.329 31.2347 284.798C31.5114 284.266 31.7941 283.738 32.083 283.213C32.3718 282.688 32.6666 282.167 32.9675 281.648C33.2683 281.13 33.5751 280.616 33.8877 280.104C34.2004 279.593 34.5189 279.086 34.8433 278.582C35.1677 278.078 35.4978 277.578 35.8337 277.082C36.1696 276.586 36.5111 276.094 36.8583 275.606C37.2055 275.117 37.5583 274.633 37.9167 274.153C38.275 273.673 38.6388 273.197 39.008 272.725C39.3774 272.253 39.7522 271.786 40.1323 271.323C40.5124 270.859 40.8977 270.401 41.2882 269.946C41.679 269.492 42.0748 269.042 42.4757 268.597C42.8767 268.152 43.2828 267.711 43.6941 267.276C44.1052 266.84 44.5212 266.408 44.9422 265.982C45.3632 265.556 45.7891 265.134 46.22 264.718C46.6506 264.302 47.086 263.89 47.5263 263.484C47.9666 263.077 48.4114 262.676 48.8608 262.28C49.3103 261.884 49.7642 261.493 50.2228 261.107C50.6814 260.721 51.1442 260.341 51.6114 259.966C52.0786 259.59 52.5501 259.221 53.0259 258.857C53.5015 258.492 53.9812 258.134 54.4652 257.78C54.9494 257.427 55.4374 257.08 55.9292 256.738C56.4213 256.396 56.9172 256.06 57.4169 255.729C57.9165 255.398 58.42 255.074 58.9273 254.755C63.8705 251.594 69.1104 249.226 74.2257 246.403Z" fill="#28292C"/>
<path d="M335.146 139.536C336.778 140.394 338.325 141.45 339.894 142.419C344.632 145.346 349.123 148.411 353.682 151.603C355.28 152.724 357.015 153.686 358.589 154.816C364.064 158.711 369.325 162.874 374.373 167.307C376.249 168.949 378.128 170.416 379.81 172.285C382.752 175.555 385.354 179.616 386.645 183.834C389.231 192.284 387.102 200.916 383.007 208.498C378.462 216.915 368.116 228.774 371.055 238.637C372.043 241.956 373.885 245.025 375.594 248.016C381.377 258.139 386.797 265.909 386.835 278.112C386.854 283.995 385.765 289.017 383.011 294.22C382.369 295.438 381.685 296.631 380.958 297.799C380.233 298.968 379.467 300.11 378.66 301.224C377.853 302.339 377.008 303.424 376.124 304.478C375.241 305.533 374.321 306.556 373.365 307.546C371.404 309.547 369.257 311.36 367.328 313.393L367.374 291.815C367.37 288.546 367.566 285.164 367.298 281.915C367.225 281.031 367.065 280.262 366.673 279.458C366.261 279.291 365.965 279.246 365.526 279.205C362.094 278.885 358.188 279.248 354.693 279.261C351.247 279.274 347.512 278.933 344.101 279.277C343.569 279.33 343.215 279.352 342.797 279.708C342.004 282.668 342.364 286.277 342.363 289.337L342.362 301.876C342.333 320.4 342.519 338.952 342.181 357.472L335.6 357.466C335.333 332.976 335.443 308.43 335.687 283.937C332.561 283.677 329.325 283.828 326.187 283.829C321.36 283.831 316.522 283.77 311.696 283.903C311.436 287.059 311.61 290.369 311.639 293.542L311.723 308.466L311.744 357.625L307.929 357.624L307.923 315.274L307.927 302.955C307.928 300.514 308.069 297.989 307.8 295.565L284.229 295.531L284.131 357.581L146.55 357.624C145.872 345.543 145.306 333.457 144.853 321.365C148.12 322.45 151.302 323.727 154.617 324.679C164.802 327.605 176.485 328.531 186.564 324.791C187.33 324.513 188.087 324.212 188.835 323.887C189.582 323.562 190.319 323.215 191.046 322.844C191.771 322.474 192.485 322.081 193.187 321.666C193.889 321.251 194.577 320.815 195.251 320.357C195.926 319.899 196.586 319.421 197.23 318.923C197.875 318.424 198.504 317.906 199.117 317.368C199.729 316.83 200.325 316.274 200.903 315.699C201.481 315.124 202.04 314.532 202.582 313.923C208.49 307.291 212.219 298.642 215.799 290.61C218.793 283.896 221.624 277.088 224.698 270.414L294.804 270.325L319.723 270.373C324.53 270.389 329.381 270.535 334.184 270.34C334.4 264.695 334.209 258.965 334.216 253.31L334.246 222.407L334.209 147.093C334.679 147.387 335.109 147.68 335.65 147.83C335.467 147.35 334.78 147.044 334.342 146.759C334.065 145.887 333.979 140.362 334.334 139.548L334.851 139.809L335.146 139.536Z" fill="#FEEEEB"/>
<path d="M113.095 101.066C127.617 100.666 142.251 100.94 156.783 101.036L200.091 101.034L283.64 100.95C296.297 100.963 308.975 100.78 321.63 101.004L321.828 222.78C321.878 234.274 321.837 245.769 321.705 257.263L261.191 257.132L241.118 257.166C237.505 257.176 233.748 257.416 230.159 257.096C232.41 252.361 233.922 247.052 236.522 242.507C239.125 239.763 241.213 236.452 242.812 233.031C244.6 232.207 246.035 231.397 247.493 230.064C249.531 227.484 250.751 224.604 250.324 221.245C250.081 219.339 248.842 216.173 247.132 215.014C246.841 214.816 246.506 214.684 246.187 214.538C245.663 214.301 245.414 214.268 245.117 213.77C245.2 212.653 245.443 211.235 244.679 210.293C244.06 209.53 242.754 209.048 241.803 208.983C241.659 208.973 241.514 208.973 241.368 208.968C241.265 208.965 241.161 208.958 241.057 208.955C240.993 208.953 240.93 208.953 240.866 208.952C241.865 207.136 242.676 205.05 242.063 202.951C242.029 202.832 241.989 202.716 241.942 202.602C241.896 202.487 241.844 202.375 241.786 202.267C241.728 202.158 241.664 202.052 241.595 201.95C241.526 201.848 241.451 201.75 241.372 201.656C241.292 201.562 241.208 201.472 241.119 201.386C241.03 201.301 240.937 201.221 240.839 201.145C240.742 201.07 240.64 201 240.535 200.935C240.43 200.87 240.322 200.811 240.211 200.757C239.72 200.521 239.239 200.499 238.707 200.455C238.61 200.448 238.514 200.437 238.418 200.428C238.359 200.423 238.301 200.42 238.244 200.415L246.111 185.233C247.146 183.217 248.467 181.182 249.271 179.071C249.523 178.409 249.751 177.622 249.588 176.911C249.458 176.343 248.873 175.686 248.328 175.466C247.868 175.28 247.381 175.379 246.96 175.609C246.237 176.005 245.67 176.724 245.228 177.404C243.715 179.731 242.64 182.393 241.354 184.849C238.945 189.455 236.453 194.026 233.938 198.577C232.876 200.497 231.918 202.496 230.762 204.361C230.313 203.529 229.871 202.584 228.905 202.268C227.694 201.873 226.188 202.509 225.147 203.088C218.708 206.668 210.388 217.962 208.56 224.957C207.525 228.916 207.614 232.431 208.976 236.289L206.928 240.198C206.619 240.949 206.279 241.586 205.818 242.255C203.186 247.25 200.323 252.174 197.863 257.251C184.978 257.507 172.039 257.261 159.15 257.276L143.823 257.294C140.278 257.293 136.694 257.385 133.161 257.077C126.677 253.515 120.255 250.04 113.098 248.015C112.125 242.691 111.848 237.045 111.386 231.651C113.856 231.25 116.228 230.781 118.501 229.693C121.588 228.216 124.693 225.25 125.77 221.936C127.195 217.552 121.638 196.188 119.712 191.08C118.305 187.351 116.404 183.827 114.553 180.306C115.431 179.898 116.337 179.502 117.169 179.007C117.369 178.886 117.566 178.76 117.76 178.63C117.954 178.499 118.145 178.364 118.332 178.225C118.52 178.085 118.703 177.94 118.883 177.792C119.064 177.643 119.24 177.489 119.413 177.332C119.585 177.174 119.754 177.013 119.919 176.847C120.083 176.681 120.244 176.511 120.4 176.337C120.557 176.163 120.709 175.986 120.856 175.805C121.004 175.623 121.147 175.439 121.285 175.25C121.424 175.062 121.557 174.87 121.686 174.675C121.815 174.48 121.94 174.283 122.059 174.082C122.178 173.881 122.292 173.677 122.402 173.47C122.511 173.263 122.615 173.054 122.714 172.842C122.813 172.631 122.906 172.417 122.995 172.2C123.083 171.984 123.166 171.765 123.244 171.545C123.321 171.324 123.393 171.102 123.46 170.878C123.527 170.654 123.588 170.428 123.643 170.201C124.453 166.882 124.053 163.304 122.227 160.383C120.043 156.891 116.985 155.77 113.137 154.857L113.095 101.066Z" fill="#FCFBFC"/>
<path d="M247.493 230.064C247.297 234.219 247.377 238.402 247.365 242.562C243.775 242.566 240.102 242.72 236.522 242.507C239.125 239.763 241.213 236.452 242.812 233.031C244.6 232.207 246.035 231.397 247.493 230.064Z" fill="#A5A5A5"/>
<path d="M137.892 229.414L151.087 229.424C151.028 233.701 151.052 237.983 151.046 242.261L138.015 242.239L137.892 229.414Z" fill="#A5A5A5"/>
<path d="M131.219 163.254L165.968 163.386C165.974 164.817 166.292 168.666 165.81 169.839C154.312 169.81 142.79 169.622 131.295 169.808C131.328 167.624 131.258 165.437 131.219 163.254Z" fill="#A5A5A5"/>
<path d="M286.901 113.857C291.466 114.329 295.874 115.979 299.358 119.038C303.346 122.539 306.264 127.953 306.629 133.267C300.07 133.367 293.5 133.296 286.939 133.303C286.967 126.821 286.954 120.339 286.901 113.857Z" fill="#28292C"/>
<path d="M197.734 147.854C214.898 147.548 232.098 148.232 249.256 147.807C249.268 149.114 249.559 153.36 249.023 154.213L197.411 154.06C197.444 152.073 197.357 150.084 197.422 148.096L197.734 147.854Z" fill="#A5A5A5"/>
<path d="M197.495 132.204L249.095 132.142L249.041 138.507C242.716 138.719 236.359 138.609 230.03 138.611L197.531 138.616L197.495 132.204Z" fill="#A5A5A5"/>
<path d="M168.587 132.256C173.647 132.161 178.711 132.25 183.773 132.164L183.756 138.626L145.822 138.63L131.228 138.617L131.214 132.346C143.663 132.472 156.137 132.344 168.587 132.256Z" fill="#A5A5A5"/>
<path d="M197.853 116.441C204.101 116.349 210.348 116.325 216.595 116.369L248.941 116.368C248.939 118.424 249.115 120.682 248.825 122.709L248.534 122.906C231.51 122.837 214.485 122.865 197.46 122.99C197.479 121.119 197.33 119.204 197.457 117.34C197.493 116.821 197.482 116.775 197.853 116.441Z" fill="#A5A5A5"/>
<path d="M131.187 147.769L183.874 147.807L183.928 154.236L131.201 154.242L131.187 147.769Z" fill="#A5A5A5"/>
<path d="M131.334 116.367C148.85 116.525 166.367 116.528 183.884 116.377C183.855 118.546 183.841 120.715 183.844 122.884C166.335 123.438 148.757 122.867 131.238 123.053C131.237 120.823 131.217 118.595 131.334 116.367Z" fill="#A5A5A5"/>
<path d="M164.355 212.214C168.987 212.292 173.635 212.202 178.268 212.19L178.252 242.208L164.36 242.201L164.355 212.214Z" fill="#A5A5A5"/>
<path d="M261.508 200.237C266.071 200.176 270.634 200.155 275.198 200.176L275.222 229.288L275.206 237.85C275.214 238.915 275.351 239.988 275.322 241.05C275.309 241.539 275.331 241.95 275.044 242.366L274.457 242.441C269.899 242.403 265.341 242.432 260.784 242.529C260.703 238.799 260.392 201.166 260.886 200.3L261.508 200.237Z" fill="#A5A5A5"/>
<path d="M283.321 120.05C283.874 120.05 284.314 120 284.785 120.339C285.043 122.146 284.88 124.09 284.873 125.913L284.877 135.326L300.792 135.32C300.986 139.8 300.001 144.346 297.198 147.931C294.056 151.948 289.722 153.829 284.766 154.449C280.228 154.315 275.835 153.046 272.403 149.957C269.018 146.911 266.99 142.353 266.779 137.826C266.764 137.543 266.756 137.259 266.755 136.974C266.754 136.69 266.76 136.406 266.773 136.122C266.786 135.838 266.806 135.554 266.834 135.272C266.86 134.989 266.894 134.707 266.936 134.425C266.976 134.144 267.024 133.864 267.079 133.585C267.134 133.306 267.196 133.029 267.264 132.753C267.333 132.477 267.408 132.203 267.49 131.931C267.572 131.659 267.661 131.389 267.757 131.121C267.852 130.853 267.954 130.588 268.063 130.325C268.171 130.063 268.286 129.803 268.407 129.545C268.529 129.288 268.656 129.035 268.79 128.784C268.924 128.533 269.064 128.286 269.21 128.042C269.356 127.798 269.508 127.558 269.666 127.322C269.824 127.086 269.988 126.853 270.157 126.625C270.327 126.397 270.502 126.173 270.682 125.953C270.863 125.734 271.048 125.519 271.24 125.308C274.508 121.729 278.567 120.286 283.321 120.05Z" fill="#A5A5A5"/>
<path d="M191.346 184.143L206.61 184.181C206.584 197.403 206.657 210.625 206.826 223.845L206.796 234.119C206.787 236.104 206.635 238.232 206.928 240.198C206.619 240.949 206.279 241.586 205.818 242.255C203.476 241.785 194.281 242.096 191.348 242.073L191.346 184.143Z" fill="#28292C"/>
<path d="M288.536 166.842L302.99 166.82C303.337 192.067 302.998 217.338 303.13 242.59C298.258 242.395 293.379 242.431 288.504 242.423L288.536 166.842Z" fill="#A5A5A5"/>
<path d="M249.32 176.636C248.409 179.026 249.48 177.548 249.48 177.548L247.398 176.493C247.398 176.493 246.06 178.267 248.291 175.488C250.522 172.71 250.23 174.246 249.32 176.636Z" fill="#A5A5A5"/>
</svg>
