<svg width="165" height="230" viewBox="0 0 165 230" fill="none" xmlns="http://www.w3.org/2000/svg">
<g clip-path="url(#clip0_323_127)">
<path d="M165 0H0V230H165V0Z" fill="#28292C"/>
<path d="M87.1728 122.098L85.4648 207.359" stroke="#FCFBFC" stroke-width="1.47656" stroke-linecap="round" stroke-linejoin="round"/>
<path d="M66.1934 106.959H108.571V120.885C108.571 137.191 99.0645 150.443 87.3662 150.443C75.668 150.443 66.1611 137.191 66.1611 120.885V106.959H66.1934Z" fill="#A5A5A5"/>
<path d="M99.0322 145.502H75.7969V150.398H99.0322V145.502Z" fill="#FCFBFC"/>
<path d="M108.571 106.959C108.571 109.115 104.897 111.047 99.29 112.17C97.9365 112.439 96.4541 112.664 94.875 112.844C93.0381 113.068 91.0723 113.203 89.042 113.248C88.8486 113.248 88.6553 113.248 88.4619 113.248C88.1074 113.248 87.7529 113.248 87.3984 113.248C87.0439 113.248 86.8506 113.248 86.5605 113.248C86.2705 113.248 85.9482 113.248 85.6582 113.248C85.4326 113.248 85.1748 113.248 84.9492 113.248C84.7236 113.248 84.5303 113.248 84.3047 113.248C82.5 113.158 80.7598 113.023 79.1484 112.799C77.4727 112.574 75.9258 112.305 74.5078 111.99C71.8975 111.406 69.7705 110.598 68.3203 109.744C67.6758 109.34 67.1602 108.936 66.8057 108.486C66.4189 107.992 66.1934 107.498 66.1934 107.004C66.1934 106.195 66.709 105.432 67.6113 104.713C69.7061 103.096 73.9922 101.838 79.374 101.164C79.7607 101.164 80.1152 101.074 80.502 101.029C80.7275 101.029 80.9853 101.029 81.2109 100.984C82.2744 100.895 83.4023 100.805 84.5303 100.76C84.8203 100.76 85.1426 100.76 85.4326 100.76C86.0771 100.76 86.6895 100.76 87.334 100.76C88.5264 100.76 89.7187 100.76 90.8467 100.85C91.04 100.85 91.2334 100.85 91.4268 100.85C92.6191 100.939 93.7471 101.029 94.875 101.164C98.001 101.523 100.74 102.062 102.932 102.781C106.38 103.904 108.507 105.387 108.507 107.049L108.571 106.959Z" fill="#FCFBFC"/>
<path d="M108.056 126.23C108.056 128.521 98.6777 130.408 87.1406 130.408C75.6035 130.408 66.2256 128.566 66.2256 126.23" stroke="#FCFBFC" stroke-width="1.47656" stroke-linecap="round" stroke-linejoin="round"/>
<path d="M66.1934 126.23L61.7139 210.729" stroke="#FCFBFC" stroke-width="1.47656" stroke-linecap="round" stroke-linejoin="round"/>
<path d="M88.7197 218.32C104.898 218.32 118.014 215.867 118.014 212.84C118.014 209.813 104.898 207.359 88.7197 207.359C72.5411 207.359 59.4258 209.813 59.4258 212.84C59.4258 215.867 72.5411 218.32 88.7197 218.32Z" stroke="#FCFBFC" stroke-width="1.47656" stroke-linecap="round" stroke-linejoin="round"/>
<path d="M108.056 126.23L117.981 212.885" stroke="#FCFBFC" stroke-width="1.47656" stroke-linecap="round" stroke-linejoin="round"/>
<path d="M88.7197 216.164C101.374 216.164 111.633 214.676 111.633 212.84C111.633 211.004 101.374 209.516 88.7197 209.516C76.0652 209.516 65.8066 211.004 65.8066 212.84C65.8066 214.676 76.0652 216.164 88.7197 216.164Z" fill="#FCFBFC"/>
<path d="M93.3281 130.273L102.255 217.691" stroke="#FCFBFC" stroke-width="1.47656" stroke-linecap="round" stroke-linejoin="round"/>
<path d="M75.7969 129.779L70.0928 217.063" stroke="#FCFBFC" stroke-width="1.47656" stroke-linecap="round" stroke-linejoin="round"/>
<path d="M111.117 73.6719C110.666 73.7617 110.247 73.8965 109.828 74.0312C109.635 74.0762 109.441 74.166 109.28 74.2109C107.733 74.75 106.283 75.5586 104.962 76.5469C104.833 76.6367 104.672 76.7715 104.543 76.8613C103.898 77.3555 103.286 77.8945 102.706 78.4785C102.609 78.5684 102.513 78.6582 102.448 78.748C100.901 80.3203 99.5156 82.207 98.291 84.1836C98.1943 84.3184 98.0977 84.498 98.001 84.6328C97.3242 85.7559 96.7119 86.9238 96.1318 88.0918C96.0674 88.2266 96.0029 88.3164 95.9707 88.4512C95.1006 90.293 94.3271 92.1348 93.6826 93.9316C93.6182 94.0664 93.5859 94.2012 93.5215 94.3359C93.4248 94.6055 93.3281 94.875 93.2314 95.1445C92.6514 96.8516 92.1357 98.5586 91.6846 100.221C91.6846 100.355 91.6201 100.445 91.5879 100.535C91.5879 100.58 91.5879 100.67 91.5557 100.715C91.2978 101.703 91.04 102.691 90.8144 103.635C90.8144 103.725 90.7822 103.814 90.75 103.904C90.46 105.162 90.2021 106.33 90.0088 107.408C90.0088 107.498 89.9766 107.588 89.9443 107.678C89.751 108.711 89.5576 109.699 89.4287 110.508C89.4287 110.553 89.4287 110.643 89.4287 110.687C89.2353 111.766 89.1387 112.664 89.042 113.203C88.8486 113.203 88.6553 113.203 88.4619 113.203C88.6553 111.541 89.3643 106.6 90.9434 100.715C91.4268 98.8281 92.0068 96.8516 92.7158 94.875C94.6494 89.2148 96.9697 84.543 99.6123 80.9941C102.932 76.502 106.799 73.8066 111.053 72.9082L111.149 73.6719H111.117Z" fill="#A5A5A5"/>
<path d="M89.0742 110.643C89.6221 110.508 90.2021 110.418 90.75 110.328C92.3291 109.52 93.9082 109.52 95.5195 109.879C96.3252 110.104 97.1309 110.463 97.9043 110.957C98.291 111.227 98.6455 111.496 99 111.855C99.3545 112.215 99.6768 112.619 99.9346 113.068C100.289 113.428 100.644 113.832 100.966 114.236C100.547 114.012 100.128 113.832 99.709 113.697C99.29 113.697 98.9033 113.652 98.5166 113.607C98.1299 113.563 97.7432 113.518 97.3564 113.428C96.6152 113.293 95.8418 113.113 95.1006 112.979C93.6504 112.574 92.2002 112.17 90.7178 111.182C90.1699 111.002 89.6221 110.822 89.0742 110.643Z" fill="#A5A5A5"/>
<path d="M89.4932 107.678C90.041 107.453 90.5889 107.229 91.1367 107.049C92.5225 105.971 94.0049 105.701 95.4873 105.656C97.0019 105.701 98.5166 106.016 99.9668 107.184C100.386 107.318 100.837 107.498 101.256 107.678C100.805 107.723 100.386 107.813 99.9346 107.857C98.4199 108.621 96.9375 108.756 95.5195 108.801C94.1016 108.756 92.6836 108.621 91.2334 107.902C90.6855 107.857 90.1055 107.768 89.5576 107.723L89.4932 107.678Z" fill="#A5A5A5"/>
<path d="M90.3633 104.039C90.6211 103.859 90.8467 103.68 91.1045 103.5C91.3623 103.32 91.6201 103.141 91.8779 103.006C92.6514 102.242 93.457 101.748 94.3271 101.344C95.1973 100.984 96.0674 100.76 96.9697 100.625C97.9043 100.58 98.8389 100.625 99.7412 100.805C100.644 101.029 101.546 101.434 102.384 102.062C102.803 102.242 103.222 102.467 103.641 102.646C103.189 102.646 102.771 102.646 102.319 102.691C101.417 103.006 100.547 103.186 99.6768 103.32C98.8066 103.455 97.9365 103.545 97.0986 103.68C96.2607 103.725 95.4228 103.814 94.585 103.814C93.7471 103.814 92.8769 103.814 91.9746 103.725C91.6846 103.725 91.4268 103.814 91.1367 103.859C90.8467 103.904 90.5889 103.949 90.2988 103.994L90.3633 104.039Z" fill="#A5A5A5"/>
<path d="M91.2012 100.76C91.4268 100.535 91.6523 100.266 91.8779 100.041C92.1035 99.8164 92.3291 99.5918 92.5869 99.3672C93.1025 98.5586 93.7471 97.9746 94.4238 97.5254C95.1006 97.0762 95.8096 96.8066 96.5508 96.582C97.3242 96.4473 98.0977 96.4023 98.8389 96.582C99.6123 96.7168 100.354 97.0762 101.03 97.6152C101.256 97.7051 101.449 97.7949 101.675 97.8847C101.9 97.9746 102.094 98.0644 102.319 98.1992C102.094 98.1992 101.868 98.1992 101.675 98.1992C101.449 98.1992 101.224 98.1992 101.03 98.2441C100.321 98.6484 99.6123 98.873 98.9355 99.0976C98.2588 99.3223 97.582 99.457 96.9375 99.6367C96.293 99.7715 95.6162 99.8613 94.9717 99.9961C94.2949 100.086 93.6182 100.131 92.877 100.086C92.6191 100.176 92.3291 100.266 92.0713 100.355C91.8135 100.445 91.5234 100.58 91.2656 100.67L91.2012 100.76Z" fill="#A5A5A5"/>
<path d="M93.2637 94.5605C93.5859 93.9316 94.0693 93.3926 94.585 93.0332C95.1006 92.3145 95.7451 91.9102 96.3574 91.6406C96.9697 91.3711 97.6143 91.2363 98.2588 91.1465C99.5801 91.1465 100.901 91.3711 102.126 92.4492C102.545 92.584 102.996 92.7188 103.415 92.8535C102.996 92.9434 102.545 93.0332 102.094 93.1231C100.805 93.9766 99.5479 94.1562 98.3555 94.291C97.7432 94.291 97.1631 94.291 96.5508 94.2461C95.9385 94.2012 95.3584 94.0215 94.7139 93.8867C94.1982 93.9766 93.6826 94.2012 93.1992 94.6055L93.2637 94.5605Z" fill="#A5A5A5"/>
<path d="M95.5195 88.541C96.0029 88.1367 96.5186 87.7773 97.0342 87.5078C97.292 87.1934 97.5498 86.9238 97.8398 86.6992C98.1299 86.4746 98.4199 86.2949 98.71 86.1602C99.3223 85.8906 99.9346 85.7559 100.547 85.7109C101.191 85.7109 101.836 85.8457 102.48 86.0703C103.093 86.3398 103.705 86.7441 104.221 87.418C104.414 87.5527 104.64 87.6426 104.833 87.7773C105.026 87.9121 105.22 88.0469 105.445 88.1816C105.22 88.1816 104.994 88.1816 104.801 88.1367C104.575 88.1367 104.35 88.1367 104.156 88.1367C103.512 88.4512 102.932 88.5859 102.352 88.7207C101.771 88.8105 101.191 88.8555 100.644 88.9004C100.096 88.9004 99.5479 88.9004 98.9678 88.8105C98.6777 88.8105 98.3877 88.7207 98.0977 88.6758C97.8076 88.6309 97.5176 88.4961 97.1953 88.4062C96.6475 88.4512 96.0996 88.541 95.5518 88.6309L95.5195 88.541Z" fill="#A5A5A5"/>
<path d="M97.4853 84.7227C97.9687 84.3184 98.4844 83.959 99 83.6445C99.5479 82.9707 100.192 82.5215 100.837 82.207C101.481 81.8926 102.158 81.7129 102.867 81.623C103.576 81.623 104.285 81.623 104.962 81.8926C105.639 82.1172 106.315 82.5215 106.96 83.1055C107.186 83.1953 107.379 83.2852 107.604 83.4199C107.798 83.5547 108.023 83.6445 108.217 83.7793C107.991 83.7793 107.766 83.7793 107.572 83.7793C107.347 83.7793 107.121 83.7793 106.928 83.7793C106.251 84.1387 105.574 84.3184 104.93 84.4531C104.285 84.5879 103.641 84.6777 103.028 84.7227C102.416 84.7227 101.804 84.7227 101.159 84.7227C100.515 84.7227 99.8701 84.5879 99.1934 84.4082C98.6455 84.4531 98.0977 84.5879 97.5176 84.6777L97.4853 84.7227Z" fill="#A5A5A5"/>
<path d="M101.997 78.6582C102.545 78.5234 103.125 78.3887 103.673 78.3437C103.931 78.1641 104.188 77.9844 104.446 77.8945C104.575 77.8496 104.704 77.8047 104.833 77.7598C104.962 77.7598 105.091 77.7598 105.22 77.7148C105.478 77.7148 105.735 77.7148 105.993 77.7148C106.251 77.7598 106.477 77.8047 106.734 77.8945C107.218 78.1191 107.701 78.4336 108.12 78.8828C108.539 79.332 108.926 79.8711 109.184 80.6348C109.538 80.9941 109.893 81.4434 110.183 81.8477C109.764 81.623 109.377 81.3984 108.958 81.2188C108.378 81.3086 107.895 81.3086 107.411 81.2188C106.928 81.1289 106.509 80.9941 106.058 80.8594C105.864 80.7695 105.639 80.6797 105.445 80.5449C105.252 80.4551 105.026 80.3203 104.833 80.1855C104.736 80.0957 104.64 80.0508 104.543 79.9609C104.446 79.8711 104.35 79.7812 104.221 79.6914C104.027 79.5117 103.802 79.2871 103.608 79.0625C103.093 78.8828 102.545 78.7031 101.997 78.5234V78.6582Z" fill="#A5A5A5"/>
<path d="M104.124 76.7715C104.672 76.5469 105.22 76.4121 105.8 76.2774C106.702 75.3789 107.669 75.2442 108.604 75.334C109.538 75.5586 110.473 76.0078 111.182 77.3106C111.601 77.5801 111.987 77.8496 112.374 78.1641C111.923 78.1192 111.504 78.0293 111.053 77.9844C110.021 78.5684 109.151 78.5235 108.281 78.4336C107.443 78.209 106.638 77.9395 105.768 77.086C105.22 76.9512 104.672 76.8614 104.124 76.7715Z" fill="#A5A5A5"/>
<path d="M108.797 73.8965C109.345 73.8965 109.925 73.9863 110.505 74.1211C111.343 73.5371 112.052 73.7617 112.696 74.166C113.309 74.7051 113.856 75.4238 113.985 76.7715C114.308 77.2207 114.598 77.7148 114.855 78.209C114.469 77.8945 114.114 77.625 113.695 77.3105C112.793 77.5351 112.213 77.2656 111.665 76.9062C111.149 76.457 110.698 75.9629 110.312 74.8848C109.828 74.5254 109.345 74.166 108.829 73.8515L108.797 73.8965Z" fill="#A5A5A5"/>
<path d="M86.5605 113.248C86.2705 113.248 85.9482 113.248 85.6582 113.248C85.5937 111.631 85.3359 107.094 84.5625 100.715C83.7891 94.2012 82.5 85.7559 80.4053 76.5469C79.5674 72.8184 78.5361 68.8203 77.2793 64.6875C77.2793 64.6875 77.2793 64.6426 77.2793 64.5977C72.2197 47.6172 63.7119 28.0312 49.5645 14.2402L50.0801 13.207C54.2051 17.25 58.04 21.9219 61.5527 27.2227C61.7139 27.4473 61.875 27.7168 62.0361 27.9414C63.583 30.3223 65.0977 32.8379 66.5156 35.4883C66.6768 35.8027 66.8701 36.1172 67.0312 36.4766C67.6758 37.6894 68.2881 38.9023 68.9004 40.1602C69.0293 40.4297 69.1582 40.6543 69.2871 40.9238C69.6416 41.6875 69.9961 42.4062 70.3506 43.2148C71.7363 46.2246 73.0254 49.3691 74.25 52.6035C74.2822 52.7383 74.3467 52.8281 74.3789 52.9629C75.6035 56.1973 76.7314 59.5664 77.7627 63.0254C77.8271 63.25 77.8916 63.4746 77.9883 63.7441C78.7295 66.2598 79.4385 68.8203 80.1152 71.4258C80.1152 71.5605 80.1797 71.6953 80.2119 71.7852C80.5342 73.0879 80.8564 74.3906 81.1465 75.7383C81.1787 75.918 81.2109 76.0527 81.2754 76.2324C81.3076 76.4121 81.3398 76.5469 81.3721 76.7266C81.8877 78.9727 82.3389 81.1738 82.7578 83.3301C82.7578 83.4199 82.79 83.5098 82.8223 83.5996C83.2734 85.9355 83.6602 88.1816 84.0147 90.3379C84.0147 90.4727 84.0469 90.5625 84.0791 90.6973C84.498 93.3926 84.8848 95.9082 85.1748 98.2441C85.1748 98.2441 85.1748 98.334 85.1748 98.3789C85.2715 99.1875 85.3682 99.9961 85.4648 100.76C86.2061 107.184 86.4639 111.766 86.5283 113.338L86.5605 113.248Z" fill="#A5A5A5"/>
<path d="M85.0459 98.4688C85.5615 97.4355 86.1094 96.4023 86.625 95.3691C88.623 90.4727 90.9756 86.25 93.2959 81.8477C94.5527 79.6465 95.7451 77.4453 97.0342 75.2891C98.3232 73.1328 99.6445 71.0215 101.159 68.9551C101.61 68.1914 102.062 67.4277 102.513 66.6641C102.287 67.6074 102.062 68.5508 101.836 69.4941C100.772 75.1094 98.6133 80.2754 96.1641 84.9023C93.6504 89.3047 90.8144 93.3926 87.3018 96.3125C86.5605 97.0762 85.8193 97.75 85.0459 98.4688Z" fill="#A5A5A5"/>
<path d="M83.7568 91.0566C84.1758 89.9336 84.5947 88.8105 85.0137 87.6875C86.625 82.3867 88.8486 77.7598 90.8144 73.043C93.0058 68.2363 95.0039 63.2949 97.8076 58.7578C98.2266 57.9492 98.6455 57.1406 99.0644 56.332C98.9033 57.2754 98.71 58.2188 98.5166 59.207C97.7432 65.002 96.0674 70.5273 93.9082 75.6484C91.6846 80.5898 89.042 84.9473 85.7871 88.541C85.1426 89.3945 84.4658 90.248 83.7891 91.0566H83.7568Z" fill="#A5A5A5"/>
<path d="M82.5322 83.9141C82.9512 82.791 83.3701 81.668 83.7891 80.5449C84.4336 78.1191 85.207 75.8281 85.9805 73.582C86.7539 71.3359 87.5918 69.1797 88.4297 66.9336C89.332 64.6875 90.2021 62.4414 91.1367 60.2402C92.0713 58.0391 93.0703 55.8379 94.2305 53.6816C94.585 52.8281 94.9072 51.9746 95.2617 51.0762C95.165 52.0645 95.0684 53.0527 94.9395 54.041C94.8428 56.7363 94.4238 59.3867 93.8438 61.9473C93.2314 64.5078 92.458 66.9785 91.5879 69.3145C90.6533 71.6055 89.6543 73.7617 88.4941 75.8281C87.334 77.8496 86.0127 79.7363 84.5303 81.3535C83.8857 82.252 83.209 83.0605 82.5322 83.9141Z" fill="#A5A5A5"/>
<path d="M80.9531 77.7598C81.0176 76.502 81.1787 75.2441 81.4687 73.9863C81.6299 72.6836 81.9199 71.4258 82.2744 70.2578C82.6289 69.0898 83.0156 67.9219 83.4346 66.8438C83.8535 65.7656 84.2725 64.7324 84.6914 63.6992C85.0781 62.666 85.4648 61.6777 85.7871 60.6445C86.5605 58.5332 87.2373 56.2422 88.043 53.9961C88.8486 51.75 89.8154 49.4141 91.1045 47.4375C91.2979 47.0332 91.5234 46.6289 91.749 46.2246C91.9746 45.8203 92.2002 45.4609 92.4258 45.0566C92.3291 45.5059 92.2002 46 92.1035 46.4492C92.0068 46.9434 91.9102 47.3926 91.8135 47.8867C91.5557 50.4473 91.2978 52.873 90.8467 55.3887C90.4277 57.8594 89.8476 60.375 89.042 62.8457C88.623 64.0137 88.1074 65.1816 87.5918 66.2598C87.0439 67.3379 86.4961 68.3262 85.916 69.2695C84.7559 71.1562 83.5312 72.8184 82.3389 74.6152C81.8232 75.6035 81.3721 76.6367 80.9853 77.8047L80.9531 77.7598Z" fill="#A5A5A5"/>
<path d="M79.9863 72.2793C80.1797 71.0215 80.373 69.8086 80.5986 68.5957C80.8242 64.2383 81.791 60.2852 82.9834 56.4219C83.6602 54.4902 84.4014 52.5586 85.3037 50.7617C86.2061 48.9648 87.2373 47.3027 88.5264 45.8652C88.752 45.5059 88.9775 45.1016 89.2354 44.7422L89.9766 43.6641C89.7188 44.5625 89.4609 45.5059 89.2031 46.4043C88.623 50.7617 87.4629 54.6699 86.2705 58.5332C84.9815 62.2168 83.5957 65.9004 81.501 69.1348C81.0176 70.2129 80.5342 71.2461 80.0186 72.2793H79.9863Z" fill="#A5A5A5"/>
<path d="M86.0771 32.7031C86.0771 33.332 86.1416 33.9609 86.1416 34.5898C86.1416 35.2187 86.1416 35.8477 86.1416 36.4766C86.3672 38.9023 86.335 41.2832 86.0449 43.6641C85.7871 46.0449 85.3037 48.3359 84.7236 50.6269C84.0469 52.918 83.2412 55.1191 82.2422 57.1855C81.7588 58.2187 81.2109 59.1621 80.5986 60.1055C80.3086 60.5547 79.9863 61.0039 79.6641 61.4531C79.3418 61.9023 78.9873 62.2617 78.6328 62.666L78.2783 63.2051L77.8916 63.7441L77.1182 64.7773C77.2471 64.3281 77.4082 63.8789 77.5371 63.4297C77.6016 63.2051 77.6982 62.9805 77.7627 62.7559C77.8271 62.5312 77.8916 62.3066 77.9883 62.082C78.085 61.498 78.2461 60.9141 78.3428 60.3301C78.4717 59.7461 78.6006 59.207 78.7295 58.623C78.9873 57.5 79.2773 56.3769 79.5674 55.2988C80.1475 53.0977 80.7598 50.9414 81.3076 48.8301C81.9199 46.7637 82.5 44.6523 83.1123 42.5859C83.7246 40.5195 84.3691 38.4082 85.1426 36.2969C85.2715 35.7129 85.4326 35.1289 85.5615 34.5C85.6904 33.916 85.8516 33.2871 85.9805 32.7031H86.0771Z" fill="#A5A5A5"/>
<path d="M82.6289 28.0762C82.6934 29.334 82.7256 30.5918 82.7578 31.8496C83.4023 36.0723 83.1445 40.2051 82.5 44.3379C82.3066 45.3711 82.0811 46.4492 81.791 47.4375C81.5332 48.4707 81.2109 49.459 80.8564 50.4473C80.1152 52.4238 79.1162 54.2656 77.7627 55.5684C77.2471 56.2871 76.6992 56.9609 76.1191 57.5C76.5059 56.6914 76.8281 55.8379 77.1504 54.9844C77.5049 52.918 77.7949 50.9863 78.085 49.0098C78.2461 48.0215 78.4072 47.0332 78.5361 46.0449C78.6973 45.0566 78.8584 44.0684 79.0195 43.0801C79.7607 39.2617 80.4375 35.3984 81.8232 31.625C82.081 30.4121 82.3711 29.2441 82.6611 28.0312L82.6289 28.0762Z" fill="#A5A5A5"/>
<path d="M77.8594 23.9883C77.8594 25.2461 77.8916 26.5039 77.8916 27.7617C78.4717 31.7598 78.2461 35.5332 77.8916 39.3516C77.3437 43.2148 76.6348 47.0332 75.0234 50.627C74.7979 51.5703 74.54 52.5137 74.2822 53.4121C74.2822 52.4238 74.2822 51.4355 74.2822 50.4473C73.7021 46.4043 73.96 42.4063 74.3467 38.543C74.8623 34.7695 75.5391 31.0859 76.9893 27.582C77.2793 26.3691 77.5693 25.2012 77.8916 24.0332L77.8594 23.9883Z" fill="#A5A5A5"/>
<path d="M72.2519 20.6191C72.4775 21.832 72.7031 23.0898 72.8965 24.3027C74.0566 27.3574 74.2822 30.5469 74.3144 33.6914C74.1855 36.9707 73.7988 40.2051 72.4453 43.2598C72.2519 44.2031 72.0586 45.1914 71.833 46.1348C71.7685 45.1465 71.7363 44.1582 71.6719 43.1699C70.8018 39.8906 70.7373 36.7012 70.7051 33.6016C70.834 30.5469 71.0273 27.4922 71.9297 24.3926C72.0264 23.1348 72.123 21.9219 72.2519 20.6641V20.6191Z" fill="#A5A5A5"/>
<path d="M66.9668 17.3848C67.5146 18.373 68.0303 19.4512 68.4492 20.5742C69.3193 21.7422 69.9316 23.1797 70.3506 24.707C70.7695 26.2344 70.9951 27.8516 71.0918 29.4687C71.0918 31.1758 70.9951 32.793 70.7373 34.3203C70.4795 35.8477 70.0928 37.3301 69.5127 38.8574C69.3838 39.8457 69.2871 40.7891 69.2227 41.7773C69.0293 40.834 68.8682 39.8457 68.7393 38.8574C68.1914 37.3301 67.9336 35.7129 67.7725 34.1406C67.6113 32.5684 67.5791 31.0859 67.4824 29.6934C67.4824 28.3008 67.418 26.9082 67.418 25.5156C67.418 24.0781 67.418 22.6406 67.5469 21.0234C67.3857 19.8105 67.1924 18.5977 66.9346 17.3848H66.9668Z" fill="#A5A5A5"/>
<path d="M61.7139 13.2969C62.1973 14.375 62.6807 15.4531 63.1318 16.5312C64.0342 17.6992 64.7432 19.002 65.3232 20.3945C65.9033 21.7422 66.3867 23.1797 66.8057 24.707C67.1602 26.2793 67.4824 27.9414 67.5791 29.6484C67.6758 31.3555 67.5791 33.1074 67.1601 34.8594C67.1279 35.8477 67.0312 36.8809 66.8701 37.8242C66.7412 36.8809 66.5801 35.9375 66.3867 34.9941C65.7422 33.5566 65.1943 32.1641 64.7109 30.7266C64.2275 29.334 63.8086 27.8516 63.4219 26.4141C63.0996 24.9766 62.7451 23.4492 62.5195 21.9219C62.2939 20.3496 62.165 18.7773 62.2295 17.0703C62.0361 15.8574 61.875 14.5996 61.7139 13.3418V13.2969Z" fill="#A5A5A5"/>
<path d="M55.9131 11.6797C56.6543 12.3984 57.3633 13.207 58.04 14.0605C58.4912 14.2852 58.9102 14.5098 59.2646 14.8691C59.458 15.0488 59.6191 15.1836 59.7803 15.4082C59.9414 15.5879 60.1025 15.8125 60.2637 15.9922C60.5859 16.3965 60.8115 16.8457 61.0693 17.3398C61.2949 17.834 61.5205 18.2832 61.7139 18.8223C62.0684 19.9004 62.2939 21.0684 62.3906 22.2812C62.4551 23.4941 62.3906 24.752 62.0039 26.0098C62.0684 26.998 62.0361 28.0312 62.0039 29.0195C61.7783 28.0762 61.5205 27.1777 61.2305 26.2793C60.5537 25.4258 60.0059 24.5723 59.5869 23.6738C59.1357 22.8203 58.8135 21.9219 58.459 21.0234C58.3301 20.5742 58.1689 20.125 58.0723 19.6309C57.9434 19.1816 57.8145 18.6875 57.7178 18.1934C57.6533 17.9687 57.6211 17.6992 57.5566 17.4297C57.4922 17.1602 57.46 16.9355 57.4277 16.6211C57.3633 16.082 57.2988 15.498 57.2666 14.8691C56.8477 13.791 56.3965 12.7129 55.8809 11.6797H55.9131Z" fill="#A5A5A5"/>
<path d="M84.9492 113.203C84.7236 113.203 84.5303 113.203 84.3047 113.203C84.1758 112.395 83.9502 111.092 83.5312 109.43C83.5312 109.385 83.5312 109.34 83.499 109.25C83.209 108.082 82.8223 106.779 82.3066 105.342C82.2744 105.207 82.21 105.072 82.1455 104.938C81.791 103.994 81.4043 102.961 80.9531 101.883C80.9531 101.793 80.8887 101.703 80.8564 101.613C80.7598 101.389 80.6631 101.209 80.5664 100.984C80.1797 100.131 79.7607 99.2773 79.3096 98.3789C79.1484 98.1094 79.0195 97.7949 78.8584 97.5254C78.7939 97.3906 78.7295 97.3008 78.665 97.166C77.9883 95.9531 77.2148 94.6953 76.3447 93.3926C76.1836 93.168 76.0547 92.9434 75.8935 92.7187C75.4101 92.0449 74.9267 91.3711 74.4111 90.6973C74.3467 90.6074 74.25 90.4727 74.1855 90.3828C73.251 89.2148 72.2519 88.002 71.124 86.834C70.8984 86.6094 70.6728 86.3848 70.4795 86.1152C69.6416 85.2617 68.7392 84.3633 67.8047 83.5098C67.6113 83.3301 67.418 83.1504 67.1924 82.9707C66.0644 81.9824 64.8398 80.9941 63.5508 80.0508C63.3252 79.8711 63.1318 79.7363 62.9062 79.6016C62.3584 79.1973 61.7783 78.793 61.1982 78.4336C61.0371 78.3438 60.876 78.209 60.7148 78.1191C60.3603 77.8945 59.9736 77.6699 59.6191 77.4004C59.2002 77.1309 58.749 76.8613 58.2978 76.5918C57.3955 76.0527 56.4932 75.5586 55.5264 75.0645C54.1728 74.3457 52.7227 73.6719 51.2402 73.043C51.1113 72.998 50.9502 72.9082 50.8213 72.8633L51.0146 72.0098C58.2012 75.0195 64.4531 79.0625 69.6416 84.0937C70.415 84.8574 71.1562 85.6211 71.8652 86.3848C71.8652 86.3848 71.9297 86.4746 71.9619 86.5195C73.0254 87.6875 74.0244 88.9004 74.9912 90.1582C76.8281 92.584 78.4717 95.1445 79.8896 97.8848C80.4375 98.918 80.9209 99.9063 81.3398 100.895C83.9502 106.734 84.7881 111.406 85.0459 113.158L84.9492 113.203Z" fill="#A5A5A5"/>
<path d="M66.6768 118.414C67.1924 117.92 67.7402 117.426 68.2559 116.977C70.2539 114.73 72.4775 113.203 74.7656 111.811C75.958 111.182 77.1504 110.553 78.4072 110.059C79.6318 109.564 80.9853 109.205 82.3066 109.295C82.8223 109.25 83.3057 109.205 83.7891 109.295C83.3379 109.52 82.8867 109.789 82.4355 110.059C81.3398 111.002 80.2764 111.9 79.1807 112.754C78.0527 113.607 76.8926 114.371 75.7324 115.045C73.4121 116.303 71.0596 117.426 68.5459 117.83C67.9336 118.055 67.3213 118.234 66.709 118.414H66.6768Z" fill="#A5A5A5"/>
<path d="M64.4853 111.676C64.8721 111.002 65.3232 110.328 65.8066 109.744C66.29 109.025 66.8057 108.396 67.3857 107.812C67.9658 107.273 68.6103 106.779 69.2227 106.42C69.8672 106.016 70.5117 105.701 71.1562 105.432C71.8008 105.162 72.4453 104.893 73.0898 104.668C74.4434 104.264 75.8291 103.949 77.2471 103.859C78.665 103.769 80.1152 103.994 81.4687 104.668C81.7266 104.758 81.9521 104.848 82.21 104.937C82.4355 105.027 82.6934 105.162 82.9189 105.252C82.6611 105.252 82.4355 105.252 82.1777 105.297C81.9199 105.297 81.6943 105.342 81.4365 105.387C80.1152 105.791 78.8262 106.24 77.5371 106.689C76.248 107.139 74.9268 107.588 73.6699 108.037C73.0254 108.217 72.3809 108.441 71.7363 108.576C71.0918 108.756 70.4795 108.936 69.835 109.115C69.2227 109.295 68.6103 109.475 67.998 109.699C67.3857 109.924 66.7734 110.148 66.1289 110.418C65.581 110.777 65.001 111.137 64.4531 111.541L64.4853 111.676Z" fill="#A5A5A5"/>
<path d="M61.5527 104.937C62.1328 104.578 62.7129 104.264 63.293 103.949C65.8066 102.152 68.4814 101.209 71.2529 100.58C72.6709 100.355 74.1211 100.221 75.5713 100.31C77.0215 100.4 78.4717 100.67 79.8574 101.344C80.3408 101.478 80.8242 101.658 81.3076 101.838C80.8242 101.928 80.3408 102.018 79.8252 102.107C78.4394 102.557 77.0537 102.916 75.7002 103.23C74.3144 103.545 72.9609 103.814 71.6074 104.084C68.9326 104.533 66.2256 105.027 63.4219 104.893C62.8096 104.893 62.165 104.982 61.5205 104.982L61.5527 104.937Z" fill="#A5A5A5"/>
<path d="M61.9394 98.2441C62.5518 97.9746 63.1641 97.75 63.7764 97.5703C64.9043 96.9414 66.0322 96.4922 67.1601 96.1328C68.2881 95.8183 69.4482 95.5937 70.6406 95.459C71.8652 95.3691 73.0576 95.3691 74.2822 95.5937C75.5068 95.7734 76.6992 96.1777 77.8594 96.8965C78.085 96.9863 78.3428 97.0761 78.5684 97.2109C78.7939 97.3008 79.0518 97.4355 79.2773 97.5703C79.0195 97.5703 78.7939 97.5703 78.5361 97.6152C78.2783 97.6152 78.0527 97.6152 77.7949 97.6601C76.6025 98.0195 75.4424 98.289 74.2822 98.4687C73.1221 98.6484 71.9619 98.8281 70.8018 98.9629C69.6416 99.0527 68.5137 99.0976 67.3535 99.0527C66.1934 99.0078 65.0332 98.8281 63.8408 98.5137C63.2285 98.4687 62.584 98.3789 61.9717 98.289L61.9394 98.2441Z" fill="#A5A5A5"/>
<path d="M61.0693 95.3243C61.6494 94.9649 62.2295 94.6505 62.8418 94.3809C63.8086 93.6172 64.7754 92.9883 65.7744 92.5391C66.7734 92.0899 67.8047 91.7305 68.8682 91.4161C69.9639 91.1915 71.124 91.0567 72.2842 91.1915C73.4443 91.3262 74.6045 91.7754 75.6035 92.629C76.0869 92.8985 76.5381 93.2129 76.9248 93.5723C76.4414 93.4376 75.958 93.3926 75.4746 93.3477C74.3789 93.5723 73.3799 93.7969 72.3486 94.0215C71.3496 94.2911 70.3184 94.5606 69.2871 94.8301C68.2881 95.0547 67.2246 95.2794 66.1611 95.3692C65.0977 95.459 64.0342 95.459 62.9385 95.2794C62.2939 95.2794 61.6816 95.3243 61.0371 95.3243H61.0693Z" fill="#A5A5A5"/>
<path d="M58.5234 92.4043C58.8135 92.2246 59.1035 92 59.3935 91.8652C59.6836 91.6855 59.9736 91.5059 60.2637 91.3711C62.2295 89.709 64.4853 89.0801 66.709 88.8555C67.8691 88.8555 69.0293 88.8555 70.1572 89.125C70.7373 89.2598 71.2851 89.4395 71.833 89.6641C72.3809 89.8887 72.8965 90.1582 73.4443 90.3828C73.9277 90.4277 74.4111 90.4277 74.8945 90.248C74.5078 90.6973 74.0244 90.9668 73.5088 91.1465C72.9287 91.4609 72.3486 91.6406 71.7685 91.7305C71.1885 91.8652 70.6728 91.9102 70.0928 92C68.9971 92.1348 67.9014 92.2246 66.8379 92.3145C64.7109 92.4043 62.6162 92.584 60.3926 92.2695C60.0703 92.2695 59.7803 92.3145 59.458 92.3594L58.5234 92.4492V92.4043Z" fill="#A5A5A5"/>
<path d="M57.1055 87.9571C57.7178 87.6875 58.3301 87.4629 58.9102 87.2383C60.7471 85.9356 62.6484 85.5313 64.582 85.2618C66.5801 85.127 68.5781 85.2618 70.5762 86.25C71.0596 86.3399 71.5752 86.4297 72.0586 86.5645C71.5752 86.6993 71.0918 86.8789 70.6084 87.0137C68.707 88.1817 66.709 88.5411 64.7754 88.7657C62.874 88.9004 60.9727 88.9004 59.0068 88.1817C58.3945 88.1368 57.75 88.0918 57.1377 88.002L57.1055 87.9571Z" fill="#A5A5A5"/>
<path d="M55.8486 84.6777C56.4287 84.2734 57.0088 83.9141 57.5889 83.5996C58.9102 82.1621 60.4893 81.623 62.0684 81.3984C62.874 81.3984 63.6797 81.3984 64.4853 81.623C65.291 81.8477 66.0644 82.252 66.8057 82.8809C67.0635 82.9707 67.2891 83.0606 67.5146 83.1504C67.7402 83.2402 67.998 83.375 68.2236 83.4648C67.9658 83.4648 67.7402 83.5098 67.4824 83.5547C67.2246 83.5547 66.999 83.5996 66.7412 83.6445C65.9678 84.0938 65.1943 84.3633 64.4209 84.543C63.6475 84.7227 62.9062 84.8125 62.165 84.9473C60.7148 85.0371 59.2646 85.082 57.6855 84.543C57.0732 84.543 56.4287 84.6328 55.8164 84.7227L55.8486 84.6777Z" fill="#A5A5A5"/>
<path d="M54.334 81.5781C54.9141 81.2637 55.5264 80.9492 56.1064 80.6797C57.041 79.4219 58.1367 78.9727 59.2324 78.7031C60.3603 78.5684 61.5205 78.6582 62.7129 79.6016C63.1963 79.6465 63.7119 79.7363 64.1953 79.8262C63.7119 80.0059 63.2607 80.1856 62.7451 80.3652C61.7139 81.5332 60.6182 81.8926 59.5547 82.1621C58.4912 82.2969 57.3955 82.2969 56.2353 81.5781C55.623 81.5781 54.9785 81.5781 54.3662 81.5781H54.334Z" fill="#A5A5A5"/>
<path d="M52.916 78.209C53.5283 78.0293 54.1728 77.8945 54.7852 77.7598C55.6553 76.7266 56.4932 76.5469 57.3633 76.457C58.2656 76.5469 59.1357 76.8164 60.0059 77.9395C60.4893 78.0742 60.9726 78.209 61.456 78.3437C60.9726 78.4785 60.4893 78.5684 59.9736 78.6582C59.1035 79.6914 58.2012 79.8711 57.2988 79.916C56.4287 79.8262 55.5908 79.6016 54.7529 78.6133C54.1406 78.4785 53.5283 78.2988 52.8838 78.1191L52.916 78.209Z" fill="#A5A5A5"/>
<path d="M47.0185 75.2441C47.6309 74.9746 48.2432 74.75 48.8555 74.5254C49.79 73.4023 50.7891 73.0879 51.8203 72.998C52.8516 72.998 53.915 73.2676 54.8818 74.4805C55.3652 74.6152 55.8486 74.7949 56.332 74.9746C55.8486 75.0645 55.3652 75.1543 54.8496 75.2441C53.8184 76.2324 52.8193 76.4121 51.8525 76.5469C50.8857 76.5469 49.9189 76.3672 48.8877 75.5137C48.2754 75.4238 47.6309 75.3789 47.0185 75.2891V75.2441Z" fill="#A5A5A5"/>
<path d="M133.257 79.2871C145.538 79.2871 155.493 65.4097 155.493 48.291C155.493 31.1723 145.538 17.2949 133.257 17.2949C120.976 17.2949 111.021 31.1723 111.021 48.291C111.021 65.4097 120.976 79.2871 133.257 79.2871Z" fill="#FCFBFC"/>
<path d="M133.257 74.7949C122.783 74.7949 114.243 62.8906 114.243 48.291C114.243 33.6914 122.783 21.7871 133.257 21.7871C143.73 21.7871 152.271 33.6914 152.271 48.291C152.271 62.8906 143.73 74.7949 133.257 74.7949Z" stroke="#FCFBFC" stroke-width="0.351562" stroke-miterlimit="10"/>
<path d="M133.257 70.3027C124.556 70.3027 117.466 60.4199 117.466 48.291C117.466 36.1621 124.556 26.2793 133.257 26.2793C141.958 26.2793 149.048 36.1621 149.048 48.291C149.048 60.4199 141.958 70.3027 133.257 70.3027Z" fill="#FCFBFC"/>
</g>
<defs>
<clipPath id="clip0_323_127">
<path d="M0 54.2586C0 24.2924 24.2924 0 54.2586 0H110.741C140.708 0 165 24.2924 165 54.2586V175.741C165 205.708 140.708 230 110.741 230H54.2586C24.2924 230 0 205.708 0 175.741V54.2586Z" fill="white"/>
</clipPath>
</defs>
</svg>
