<svg width="165" height="230" viewBox="0 0 165 230" fill="none" xmlns="http://www.w3.org/2000/svg">
<path d="M149.806 72.7854H8.45625C6.63289 72.7854 4.88421 73.7951 3.59489 75.5923C2.30558 77.3895 1.58125 79.8271 1.58125 82.3687V208.821H149.806C151.574 208.827 153.326 208.347 154.96 207.408C156.595 206.47 158.081 205.091 159.332 203.35C160.584 201.61 161.577 199.542 162.255 197.266C162.932 194.99 163.281 192.55 163.281 190.085V91.5208C163.281 89.0564 162.932 86.6162 162.255 84.34C161.577 82.0638 160.584 79.9963 159.332 78.2559C158.081 76.5155 156.595 75.1365 154.96 74.1978C153.326 73.2591 151.574 72.7791 149.806 72.7854Z" fill="#28292C"/>
<path d="M136.366 171.302V2.39581L62.3219 2.39581L62.3219 171.302H136.366Z" fill="#A5A5A5"/>
<path d="M69.025 157.215V25.875C71.6934 25.8497 74.2464 24.3543 76.1268 21.7151C78.0072 19.0759 79.0626 15.5072 79.0625 11.7875H119.522C119.522 15.5237 120.587 19.1069 122.482 21.7488C124.377 24.3908 126.948 25.875 129.628 25.875V157.215C126.948 157.215 124.377 158.699 122.482 161.341C120.587 163.983 119.522 167.566 119.522 171.302H79.0625C79.0626 167.582 78.0072 164.014 76.1268 161.374C74.2464 158.735 71.6934 157.24 69.025 157.215Z" fill="#FCFBFC"/>
<path d="M42.1094 105.608C58.835 105.608 72.3937 86.7082 72.3937 63.3937C72.3937 40.0792 58.835 21.1791 42.1094 21.1791C25.3838 21.1791 11.825 40.0792 11.825 63.3937C11.825 86.7082 25.3838 105.608 42.1094 105.608Z" fill="#FCFBFC"/>
<path d="M42.1094 96.2167C55.114 96.2167 65.6563 81.5214 65.6563 63.3938C65.6563 45.2662 55.114 30.5709 42.1094 30.5709C29.1048 30.5709 18.5625 45.2662 18.5625 63.3938C18.5625 81.5214 29.1048 96.2167 42.1094 96.2167Z" fill="#A5A5A5"/>
<path d="M99.3438 110.304C112.348 110.304 122.891 99.7922 122.891 86.825C122.891 73.8578 112.348 63.3458 99.3438 63.3458C86.3392 63.3458 75.7969 73.8578 75.7969 86.825C75.7969 99.7922 86.3392 110.304 99.3438 110.304Z" fill="#A5A5A5"/>
<path d="M102.713 49.3062V21.1791H95.975V49.3062H102.713Z" fill="#A5A5A5"/>
<path d="M102.678 152.519V124.392H95.9406V152.519H102.678Z" fill="#FCFBFC"/>
<path d="M149.806 110.208V208.821C149.811 211.285 149.466 213.727 148.793 216.005C148.12 218.284 147.13 220.355 145.882 222.1C144.633 223.845 143.15 225.229 141.517 226.173C139.884 227.118 138.134 227.604 136.366 227.604H8.45625C6.63289 227.604 4.88421 226.594 3.59489 224.797C2.30558 223 1.58125 220.562 1.58125 218.021V82.1771C1.58125 84.7187 2.30558 87.1563 3.59489 88.9535C4.88421 90.7507 6.63289 91.7604 8.45625 91.7604H136.366C139.892 91.7722 143.275 93.7105 145.788 97.1596C148.301 100.609 149.743 105.293 149.806 110.208Z" fill="#A5A5A5"/>
<path d="M139.734 133.783H163.281V171.302H139.734C136.161 171.302 132.733 169.323 130.206 165.801C127.679 162.278 126.259 157.5 126.259 152.519C126.259 147.537 127.679 142.759 130.206 139.237C132.733 135.714 136.161 133.735 139.734 133.735V133.783Z" fill="#A5A5A5"/>
<path d="M52.4705 181.57V136.296C52.4705 129.218 53.8469 123.319 56.5997 118.6C59.3525 113.782 63.1868 110.145 68.1025 107.687C73.1166 105.229 78.9171 104 85.5042 104C91.7964 104 97.3511 105.18 102.169 107.539C106.986 109.801 110.771 113.242 113.524 117.862C116.277 122.483 117.653 128.284 117.653 135.264L98.0393 133.642C98.0393 129.611 96.8104 126.465 94.3525 124.204C91.993 121.942 88.9944 120.812 85.3567 120.812C81.4242 120.812 78.2289 122.188 75.7711 124.941C73.3132 127.694 72.0843 131.479 72.0843 136.296V179.801L52.4705 181.57ZM45.2444 201.184L44.9494 190.566C47.014 190.566 48.7837 189.681 50.2584 187.912C51.7331 186.142 52.4705 184.028 52.4705 181.57L72.0843 179.801C72.0843 183.831 70.8553 187.518 68.3975 190.861C66.0379 194.105 62.7935 196.662 58.6643 198.529C54.6334 200.299 50.1601 201.184 45.2444 201.184ZM42 209V190.566H117.653V209H42ZM42 167.708V151.928H102.316V167.708H42Z" fill="#28292C"/>
<path d="M32.8752 71.7095V54.9532C32.8752 52.3333 33.3847 50.1501 34.4035 48.4035C35.4224 46.6205 36.8415 45.2742 38.6608 44.3645C40.5166 43.4548 42.6634 43 45.1014 43C47.4301 43 49.486 43.4366 51.269 44.3099C53.052 45.1468 54.4529 46.4204 55.4717 48.1306C56.4906 49.8408 57 51.9877 57 54.5711L49.7407 53.9708C49.7407 52.4789 49.2859 51.3145 48.3762 50.4776C47.5029 49.6407 46.3931 49.2222 45.0468 49.2222C43.5913 49.2222 42.4087 49.7316 41.499 50.7505C40.5893 51.7693 40.1345 53.1702 40.1345 54.9532V71.0546L32.8752 71.7095ZM30.2008 78.9688L30.0916 75.039C30.8558 75.039 31.5107 74.7115 32.0565 74.0565C32.6023 73.4016 32.8752 72.6192 32.8752 71.7095L40.1345 71.0546C40.1345 72.5465 39.6797 73.911 38.77 75.1481C37.8967 76.3489 36.6959 77.295 35.1676 77.9863C33.6758 78.6413 32.0201 78.9688 30.2008 78.9688ZM29 81.8616V75.039H57V81.8616H29ZM29 66.5789V60.7388H51.3236V66.5789H29Z" fill="#28292C"/>
</svg>
