<svg width="165" height="230" viewBox="0 0 165 230" fill="none" xmlns="http://www.w3.org/2000/svg">
<g clip-path="url(#clip0_323_20)">
<path d="M165 0H0V230H165V0Z" fill="#28292C"/>
<path d="M7.15438 216.249C7.15438 216.249 8.06518 209.305 4.18933 202.707C4.18933 202.707 8.94628 208.569 9.12283 214.374C9.12283 214.374 7.53718 200.571 12.1184 196.867C12.1184 196.867 9.47593 206.604 12.1184 214.374C12.1184 214.374 14.2329 211.938 14.2329 205.62C14.2329 205.62 15.8185 213.7 13.1761 220.623H7.15438V216.248V216.249Z" fill="#A5A5A5"/>
<path d="M78.5904 209.361C78.5904 209.361 79.7082 200.839 74.9513 192.745C74.9513 192.745 80.7882 199.938 81.0051 207.06C81.0051 207.06 79.0598 190.124 84.6805 185.578C84.6805 185.578 81.4374 197.526 84.6805 207.06C84.6805 207.06 87.2751 204.071 87.2751 196.319C87.2751 196.319 89.2205 206.233 85.9782 214.728H78.5912V209.36L78.5904 209.361Z" fill="#A5A5A5"/>
<path d="M65.6031 211.735C65.6031 211.735 66.5139 204.791 62.6381 198.193C62.6381 198.193 67.395 204.055 67.5716 209.86C67.5716 209.86 65.9859 196.058 70.5672 192.353C70.5672 192.353 67.9247 202.09 70.5672 209.86C70.5672 209.86 72.6816 207.424 72.6816 201.106C72.6816 201.106 74.2673 209.186 71.6248 216.109H65.6048V211.734L65.6031 211.735Z" fill="#A5A5A5"/>
<path d="M140.478 217.364C140.478 217.364 141.389 210.419 137.513 203.821C137.513 203.821 142.27 209.683 142.446 215.488C142.446 215.488 140.861 201.686 145.442 197.982C145.442 197.982 142.799 207.719 145.442 215.488C145.442 215.488 147.556 213.052 147.556 206.734C147.556 206.734 149.142 214.814 146.499 221.737H140.479V217.363L140.478 217.364Z" fill="#A5A5A5"/>
<path d="M105.377 230H0V219.706C1.6236 219.979 3.3363 220.48 5.13645 221.267C5.13645 221.267 18.1484 195.739 36.4617 211.862C36.4617 211.862 49.7153 207.831 52.847 216.9C52.847 216.9 62.0037 208.839 70.1968 213.877C70.1968 213.877 90.3763 207.989 94.1507 223.005C94.201 223.205 94.2488 223.409 94.2934 223.618C94.2934 223.618 103.208 220.594 105.377 230Z" fill="#A5A5A5"/>
<path d="M40.076 230C40.5034 230 45.9212 220.661 55.4722 224.833C55.4722 224.833 63.1703 209.731 74.0042 219.269C74.0042 219.269 81.845 216.884 83.6979 222.25C83.6979 222.25 89.1149 217.481 93.9617 220.462C93.9617 220.462 106.221 216.885 108.217 226.224C108.217 226.224 113.491 224.436 114.775 230H40.076Z" fill="#A5A5A5"/>
<path d="M165 218.11V230H85.4197C85.7695 230 88.7791 225.022 94.1507 223.004C97.0209 221.926 100.566 221.693 104.74 223.516C104.74 223.516 114.399 204.565 127.995 216.535C127.995 216.535 137.833 213.542 140.158 220.276C140.158 220.276 146.956 214.291 153.038 218.031C153.038 218.031 159.726 216.08 165 218.11Z" fill="#A5A5A5"/>
<path d="M71.5638 108.612C71.5638 108.612 67.334 102.505 72.3063 99.3623C72.3063 99.3623 71.9598 95.4132 75.0816 94.446C78.2034 93.4789 82.0776 94.285 83.3489 91.2226C83.3489 91.2226 84.4478 88.6431 85.8346 91.2226C87.2223 93.802 84.117 102.823 77.22 104.44C77.22 104.44 78.6076 110.806 76.2951 110.967C73.9827 111.128 72.9415 108.791 72.9415 108.791L71.5629 108.611L71.5638 108.612Z" fill="#A5A5A5"/>
<path d="M91.3977 150.999L77.7868 153.039L77.2398 144.978L81.0414 130.268L80.8187 125.193L77.5979 117.051L74.7153 111.718C74.7153 111.718 71.9037 113.542 71.5638 108.61C71.5638 108.61 72.0258 106.313 73.5636 107.056C75.0544 107.776 75.6476 109.129 75.6831 109.213C75.655 109.093 75.0635 106.55 75.4413 105.232C75.8299 103.881 75.0544 101.246 75.0544 101.246C75.0544 101.246 79.0276 103.137 83.1972 100.097C83.1972 100.097 83.8365 102.332 84.419 104.999C85.0287 107.785 85.5781 111.041 85.2811 112.732C84.7003 116.043 81.6948 115.838 81.6948 115.838C81.6948 115.838 81.1347 120.275 81.7518 125.604C82.137 128.942 82.9843 132.63 84.7201 135.799C86.1036 138.327 88.1736 141.038 90.7443 143.05L90.9117 143.553L91.3985 150.997L91.3977 150.999Z" fill="#FCFBFC"/>
<path d="M90.7434 143.051C88.1727 141.039 86.1019 138.328 84.7192 135.8C82.9834 132.631 82.1361 128.944 81.7509 125.605C81.1338 120.277 81.6939 115.839 81.6939 115.839L90.7434 143.05V143.051Z" fill="#FCFBFC"/>
<path d="M115.84 203.633L109.108 209.142C106.18 201.184 94.7644 175.887 94.7644 175.887L88.3995 170.241L85.1045 167.318C84.5682 169.699 83.8777 171.955 83.0626 174.089C74.1056 197.575 50.1261 206.488 50.1261 206.488L47.784 197.308C55.2486 193.838 65.6394 184.454 65.6394 184.454L69.8849 179.355C70.7734 177.722 71.8294 175.443 72.8516 173.096C75.0263 168.11 77.0566 162.829 77.0566 162.829L77.6869 154.373L77.7867 153.037L85.8231 151.832L91.3976 150.997L91.5189 152.382L91.9833 157.729C91.9833 157.729 97.9836 163.237 102.229 169.563C106.473 175.887 115.84 203.633 115.84 203.633Z" fill="#FEEEEB"/>
<path d="M109.107 209.141L112.646 215.999L125.262 204.732L117.008 206.461L115.84 203.633" fill="#A5A5A5"/>
<path d="M47.784 197.309L42.5717 199.685L43.065 218.208L46.5672 207.758L50.1254 206.489" fill="#A5A5A5"/>
<path d="M80.6248 122.16L80.35 121.698L77.5987 117.052C77.5987 117.052 77.1697 117.321 76.4428 117.784C72.6355 120.216 60.6309 128.025 58.9372 130.877C58.9372 130.877 56.7517 134.627 58.9372 138.493C60.2126 140.751 63.3798 145.844 65.7937 149.692C66.8151 151.32 67.7028 152.726 68.2539 153.599C68.635 154.198 68.8561 154.548 68.8561 154.548L70.1885 151.762C70.2479 151.698 70.3081 151.633 70.3675 151.566C71.2833 150.562 72.0959 149.486 72.8202 148.373C73.0727 147.985 73.3128 147.594 73.5429 147.199C78.4137 138.835 78.6563 128.853 78.6563 128.853C78.8015 131.604 79.9499 133.782 80.8195 135.056C80.8714 134.831 80.9119 134.627 80.9391 134.448C81.3334 131.814 80.6256 122.16 80.6256 122.16H80.6248ZM70.8584 144.584L65.2418 135.097L73.5636 131.935C73.5636 131.935 72.3286 140.583 70.8584 144.585V144.584Z" fill="#FEEEEB"/>
<path d="M68.2531 153.6C65.2294 156.132 61.3297 157.933 56.2972 158.333C54.3848 158.41 51.0122 156.294 51.0122 156.294C54.478 156.188 61.2447 152.737 65.7929 149.693C66.8143 151.322 67.702 152.727 68.2531 153.6Z" fill="#FEEEEB"/>
<path d="M77.2398 144.979L77.7868 153.04L77.0567 162.831C65.0843 164.195 56.298 158.333 56.298 158.333C61.3305 157.933 65.2311 156.132 68.2539 153.6C68.6351 154.199 68.8562 154.55 68.8562 154.55L70.1885 151.763C71.1777 150.703 72.0497 149.56 72.8203 148.373C73.0727 147.985 73.3128 147.594 73.543 147.199C78.4138 138.835 78.6563 128.853 78.6563 128.853C78.8015 131.604 79.9499 133.782 80.8195 135.056C80.1116 138.118 77.2406 144.979 77.2406 144.979H77.2398Z" fill="#FEEEEB"/>
<path d="M70.3667 151.567C70.3073 151.633 70.2471 151.698 70.1877 151.762L68.8553 154.549C68.8553 154.549 68.6342 154.199 68.2531 153.599C67.702 152.726 66.8143 151.321 65.7929 149.692C63.379 145.844 60.2126 140.751 58.9364 138.493L70.3667 151.565V151.567Z" fill="#A5A5A5"/>
<path d="M71.9681 146.726C71.9681 146.726 70.6571 149.911 69.8701 150.998L70.3667 151.567C70.3667 151.567 72.0968 149.547 72.8195 148.373L71.9672 146.727L71.9681 146.726Z" fill="#A5A5A5"/>
<path d="M113.643 135.8C107.544 144.683 101.648 146.911 96.6718 145.911C94.5013 145.477 92.5039 144.428 90.7434 143.05C88.1727 141.038 86.1019 138.326 84.7192 135.799C82.9834 132.629 82.1361 128.942 81.7509 125.604C81.1338 120.276 81.6939 115.838 81.6939 115.838C81.6939 115.838 84.6994 116.042 85.2802 112.732C85.5772 111.042 85.0278 107.785 84.4181 104.998C86.4179 101.004 88.7873 98.4916 88.7873 98.4916C90.7978 96.4297 93.0492 95.1831 95.3791 94.6311C95.3848 94.6288 95.3923 94.6288 95.3997 94.6265C95.4129 94.6219 95.4327 94.6184 95.4591 94.6115C95.6818 94.5632 96.3526 94.4287 97.3294 94.3286C97.3368 94.3263 97.3442 94.3263 97.3516 94.3263C105.942 93.6973 114.992 101.812 116.766 112.977C119.164 128.071 113.641 135.798 113.641 135.798L113.643 135.8Z" fill="#FCFBFC"/>
<path opacity="0.45" d="M97.331 94.3311C96.4788 94.4185 95.86 94.5323 95.568 94.5921C96.1513 94.4644 96.7395 94.3771 97.331 94.3311Z" fill="#28292C"/>
<path opacity="0.45" d="M95.4608 94.6141C95.4899 94.6083 95.5256 94.6002 95.5688 94.5909C95.5331 94.5991 95.4965 94.6048 95.4608 94.6141Z" fill="#28292C"/>
<path d="M94.6226 100.098C83.8258 105.087 84.6681 120.743 84.6681 120.743C86.1407 141.388 97.9968 143.907 104.407 140.38C110.818 136.851 113.348 129.797 113.94 119.685C114.53 109.572 105.419 95.1084 94.6226 100.097V100.098ZM105.312 139.281C96.6199 144.256 83.0074 136.484 86.4485 114.411C86.4485 114.411 89.2972 103.163 96.7379 100.525C104.177 97.8891 111.113 106.413 112.941 113.707C114.769 121.002 112.637 135.089 105.312 139.281Z" fill="#FCFBFC"/>
<path d="M95.3799 94.6333C95.3799 94.6333 95.3877 94.6305 95.4015 94.6277C95.3937 94.6305 95.3859 94.6305 95.3799 94.6333Z" fill="#FCFBFC"/>
<path d="M118.326 130.855C115.879 140.146 108.204 148.358 97.4902 146.133C97.1974 146.072 96.9259 145.999 96.6718 145.912C101.647 146.911 107.544 144.684 113.643 135.801C113.643 135.801 119.165 128.074 116.768 112.981C114.993 101.815 105.944 93.7009 97.3533 94.3299C101.07 93.947 109.166 94.0608 113.967 101.226C120.35 110.751 120.773 121.568 118.326 130.856V130.855Z" fill="#FCFBFC"/>
<path d="M93.3891 125.759V114.955C93.3891 113.265 93.7236 111.858 94.3926 110.731C95.0616 109.582 95.9934 108.714 97.1881 108.127C98.4067 107.54 99.8164 107.247 101.417 107.247C102.946 107.247 104.296 107.529 105.467 108.092C106.638 108.631 107.558 109.453 108.227 110.555C108.896 111.658 109.23 113.042 109.23 114.708L104.464 114.321C104.464 113.359 104.165 112.608 103.568 112.069C102.994 111.529 102.265 111.259 101.381 111.259C100.426 111.259 99.6491 111.588 99.0518 112.245C98.4545 112.902 98.1558 113.805 98.1558 114.955V125.337L93.3891 125.759ZM91.6329 130.44L91.5612 127.906C92.063 127.906 92.4931 127.695 92.8515 127.272C93.2099 126.85 93.3891 126.346 93.3891 125.759L98.1558 125.337C98.1558 126.299 97.8571 127.178 97.2598 127.976C96.6863 128.75 95.8979 129.36 94.8943 129.806C93.9147 130.229 92.8276 130.44 91.6329 130.44ZM90.8444 132.305V127.906H109.23V132.305H90.8444ZM90.8444 122.451V118.685H105.503V122.451H90.8444Z" fill="#A5A5A5"/>
<path d="M77.1771 104.06C77.1928 104 77.9691 103.699 78.4716 103.869C78.974 104.039 79.1563 104.59 78.3041 104.569C77.4519 104.549 77.0402 104.569 77.1771 104.06Z" fill="#A5A5A5"/>
<path d="M82.0116 103.341C82.0116 103.341 82.6229 101.93 83.4033 102.078C84.1838 102.225 82.3275 103.9 82.0116 103.341Z" fill="#A5A5A5"/>
<path d="M77.6886 106.545C77.6886 106.545 77.71 105.722 78.1102 105.516C78.5103 105.31 79.0804 106.78 78.6794 107.192C78.2785 107.603 77.7092 107.192 77.6886 106.545Z" fill="#A5A5A5"/>
<path d="M82.6023 105.752C82.6023 105.752 82.2228 104.81 82.6865 104.193C83.1501 103.577 83.6567 104.841 83.4875 105.752C83.3192 106.663 82.6015 105.752 82.6015 105.752H82.6023Z" fill="#A5A5A5"/>
<path d="M81.3194 104.57C81.3194 104.57 81.5001 105.595 82.0116 106.666C82.5231 107.737 82.9109 108.445 81.6651 109.234C81.6651 109.234 81.5075 110.002 82.349 109.234C83.1905 108.466 82.8853 107.741 82.552 107.072C82.2187 106.403 81.5306 105.028 81.4613 104.3C81.392 103.572 81.3194 104.57 81.3194 104.57Z" fill="#A5A5A5"/>
<path d="M80.2172 111.276C80.2172 111.276 82.0009 111.438 83.0602 110.326C83.0602 110.326 82.9339 111.257 81.4811 111.54C80.0291 111.822 80.2172 111.276 80.2172 111.276Z" fill="#A5A5A5"/>
<path d="M73.7468 108.231C73.7468 108.231 72.1529 108.144 72.817 109.575C73.4811 111.008 73.9794 110.325 73.9794 110.325C73.9794 110.325 73.1866 109.711 73.3178 109.11C73.4481 108.508 73.9307 109.403 73.7476 108.23L73.7468 108.231Z" fill="#A5A5A5"/>
<path d="M71.5638 145.521L72.9935 148.09C72.7633 148.486 73.0719 147.985 72.8194 148.372L70.8584 144.583C72.3286 140.581 73.5636 131.933 73.5636 131.933L65.2418 135.095C65.2418 135.095 73.6634 130.428 74.3003 128.851C74.3003 128.851 74.7747 132.31 71.5646 145.52L71.5638 145.521Z" fill="#A5A5A5"/>
<path d="M116.265 105.271C116.265 105.271 114.102 106.27 113.491 106.052C113.176 105.939 113.117 105.531 113.132 105.163V105.157C113.149 104.836 113.221 104.545 113.23 104.51C113.21 104.535 113.034 104.774 112.793 105.013C112.603 105.205 112.375 105.394 112.155 105.481C112.012 105.54 111.892 105.454 111.796 105.302C111.794 105.3 111.792 105.297 111.792 105.297C111.773 105.264 111.752 105.228 111.734 105.189C111.721 105.166 111.708 105.138 111.697 105.112C111.695 105.11 111.695 105.108 111.695 105.108C111.692 105.103 111.692 105.102 111.692 105.102C111.52 104.688 111.448 104.103 111.448 104.103C111.34 104.123 111.245 104.128 111.161 104.118C111.16 104.12 111.158 104.118 111.158 104.118C111.013 104.103 110.904 104.041 110.822 103.949C110.4 103.484 110.734 102.227 110.734 102.227C110.422 102.425 110.091 102.391 109.972 101.919C109.972 101.919 109.971 101.916 109.971 101.914C109.968 101.906 109.967 101.898 109.965 101.887C109.962 101.874 109.961 101.868 109.961 101.868C109.916 101.653 109.91 101.356 109.963 100.964C110.132 99.682 112.027 98.0456 112.205 97.8926L111.534 98.3837H111.533L111.146 98.0467C111.134 96.9933 111.19 94.913 111.8 94.6324C112.623 94.2529 113.258 95.657 113.011 97.5787C113.011 97.5787 118.34 99.613 116.265 105.27V105.271Z" fill="#FCFBFC"/>
<path d="M110.823 103.95C110.399 103.485 110.734 102.227 110.734 102.227C110.423 102.425 110.092 102.39 109.972 101.919C110.013 102.048 110.193 102.324 110.958 101.668C111.902 100.861 112.73 99.8027 113.45 99.5428C113.38 99.5992 111.154 101.451 110.947 102.234C110.735 103.027 110.715 103.437 110.822 103.948L110.823 103.95Z" fill="#FCFBFC"/>
<path d="M111.588 104.293C111.588 104.293 111.599 104.825 111.693 105.102C111.521 104.689 111.448 104.103 111.448 104.103C111.34 104.124 111.245 104.129 111.162 104.117C111.205 104.034 112.523 101.402 114.545 101.206C114.545 101.206 111.873 102.466 111.588 104.293Z" fill="#FCFBFC"/>
<path d="M115.117 102.974C115.117 102.974 113.398 103.431 113.135 105.148C113.135 105.153 113.133 105.154 113.133 105.158C113.149 104.836 113.221 104.544 113.23 104.51C113.197 104.552 112.653 105.288 112.156 105.483C112.156 105.483 113.372 102.88 115.118 102.974H115.117Z" fill="#FCFBFC"/>
<path d="M111.533 98.3849L112.302 97.8087L111.604 98.4493L111.533 98.3849Z" fill="#FCFBFC"/>
<path d="M112.793 105.012C112.603 105.204 112.375 105.393 112.155 105.48C112.012 105.539 111.892 105.453 111.796 105.301C111.899 105.442 112.08 105.548 112.321 105.165C112.518 104.852 112.702 104.88 112.793 105.011V105.012Z" fill="#FCFBFC"/>
<path d="M91.5189 152.383L78.0912 154.289L77.6862 154.374L77.7868 153.04L85.8231 151.833L91.3977 150.999L91.5189 152.383Z" fill="#A5A5A5"/>
<path d="M78.3139 126.568L79.1851 122.725L76.4428 117.785C77.1705 117.321 77.5987 117.053 77.5987 117.053L80.35 121.699L78.3139 126.569V126.568Z" fill="#A5A5A5"/>
<path d="M118.073 66.255C123.85 66.255 128.533 59.7275 128.533 51.6753C128.533 43.6232 123.85 37.0956 118.073 37.0956C112.297 37.0956 107.614 43.6232 107.614 51.6753C107.614 59.7275 112.297 66.255 118.073 66.255Z" fill="#FCFBFC"/>
<path d="M113.695 54.685V47.338C113.695 46.1893 113.918 45.232 114.364 44.4662C114.809 43.6844 115.43 43.0941 116.226 42.6953C117.038 42.2964 117.977 42.097 119.044 42.097C120.062 42.097 120.962 42.2884 121.742 42.6713C122.522 43.0383 123.134 43.5967 123.58 44.3466C124.026 45.0964 124.249 46.0377 124.249 47.1705L121.073 46.9072C121.073 46.2531 120.874 45.7426 120.476 45.3756C120.094 45.0087 119.609 44.8252 119.02 44.8252C118.383 44.8252 117.866 45.0485 117.468 45.4953C117.07 45.942 116.871 46.5562 116.871 47.338V54.3978L113.695 54.685ZM112.525 57.8679L112.478 56.1448C112.812 56.1448 113.098 56.0012 113.337 55.714C113.576 55.4269 113.695 55.0838 113.695 54.685L116.871 54.3978C116.871 55.0519 116.672 55.6502 116.274 56.1927C115.892 56.7192 115.367 57.134 114.698 57.4371C114.045 57.7243 113.321 57.8679 112.525 57.8679ZM112 59.1362V56.1448H124.249V59.1362H112ZM112 52.4354V49.8747H121.765V52.4354H112Z" fill="#A5A5A5"/>
<path d="M118.073 39.4198C113.218 39.4198 109.281 44.9076 109.281 51.6754C109.281 58.4431 113.218 63.9286 118.073 63.9286C122.928 63.9286 126.865 58.4442 126.865 51.6754C126.865 44.9065 122.928 39.4198 118.073 39.4198ZM118.073 63.2892C113.471 63.2892 109.742 58.09 109.742 51.6754C109.742 45.2607 113.471 40.0592 118.073 40.0592C122.675 40.0592 126.407 45.2595 126.407 51.6754C126.407 58.0912 122.675 63.2892 118.073 63.2892Z" fill="#FCFBFC"/>
<path d="M115.871 37.4198C115.871 37.4198 115.843 36.2434 116.997 36.1939C118.152 36.1456 119.875 36.1514 120.146 36.8069C120.418 37.4624 118.104 38.0109 115.871 37.4198Z" fill="#FCFBFC"/>
<path d="M117.683 0C117.385 2.5415 116.535 10.9365 117.527 16.721C118.188 20.57 118.675 25.3218 118.671 29.3273C118.667 32.1942 118.411 34.6782 117.787 36.1767C117.742 36.2836 117.696 36.3848 117.648 36.4803C117.626 36.524 117.604 36.5665 117.582 36.6079L118.451 37.0944C118.503 36.892 118.553 36.6873 118.6 36.4803C118.621 36.3917 118.642 36.3009 118.661 36.2112C119.153 33.9537 119.382 31.4318 119.407 28.8316C119.447 24.8653 119.016 20.7195 118.336 17.0625C117.333 11.6736 118.308 2.6542 118.633 0L117.683 0Z" fill="#FCFBFC"/>
<path d="M125.056 29.808C125.056 29.808 120.46 33.971 119.811 36.4803H116.639C116.639 36.4803 114.589 32.4093 111.406 29.2985C111.406 29.2985 112.722 29.0432 113.857 29.2985C114.033 29.3388 114.188 29.3238 114.329 29.2709C115.087 28.9949 115.385 27.6425 116.126 28.0726C117.005 28.5844 117.37 29.8022 118.689 29.3215C120.005 28.8397 119.859 27.1411 120.921 27.9898C121.551 28.4935 121.639 28.9547 121.899 29.2169C122.075 29.3974 122.332 29.486 122.898 29.4319C124.289 29.2985 124.764 29.1973 125.056 29.808Z" fill="#A5A5A5"/>
<path d="M117.332 36.4802H116.639C116.639 36.4802 114.589 32.4092 111.406 29.2985C111.406 29.2985 112.722 29.0432 113.857 29.2985C114.033 29.3387 114.188 29.3238 114.329 29.2709L117.332 36.4802Z" fill="#FCFBFC"/>
<path d="M125.056 29.808C125.056 29.808 120.46 33.971 119.811 36.4803H118.943L121.898 29.2169C122.074 29.3975 122.331 29.486 122.897 29.432C124.288 29.2986 124.763 29.1974 125.055 29.808H125.056Z" fill="#FCFBFC"/>
<path d="M142.895 102.613C149.655 102.613 155.135 94.9746 155.135 85.5519C155.135 76.1291 149.655 68.4905 142.895 68.4905C136.135 68.4905 130.655 76.1291 130.655 85.5519C130.655 94.9746 136.135 102.613 142.895 102.613Z" fill="#FCFBFC"/>
<path d="M136.938 89.5611V81.1636C136.938 79.8507 137.192 78.7565 137.702 77.8812C138.211 76.9877 138.921 76.3129 139.83 75.8571C140.758 75.4012 141.832 75.1732 143.051 75.1732C144.215 75.1732 145.243 75.392 146.135 75.8297C147.026 76.2491 147.726 76.8874 148.236 77.7444C148.745 78.6015 149 79.6774 149 80.9722L145.37 80.6713C145.37 79.9236 145.143 79.3401 144.688 78.9206C144.251 78.5012 143.697 78.2915 143.023 78.2915C142.296 78.2915 141.704 78.5468 141.25 79.0574C140.795 79.568 140.567 80.2701 140.567 81.1636V89.2329L136.938 89.5611ZM135.6 93.1992L135.546 91.2297C135.928 91.2297 136.255 91.0656 136.528 90.7373C136.801 90.4091 136.938 90.017 136.938 89.5611L140.567 89.2329C140.567 89.9806 140.34 90.6644 139.885 91.2844C139.448 91.8862 138.848 92.3603 138.084 92.7068C137.338 93.035 136.51 93.1992 135.6 93.1992ZM135 94.6489V91.2297H149V94.6489H135ZM135 86.9899V84.0631H146.162V86.9899H135Z" fill="#A5A5A5"/>
<path d="M142.895 71.2103C137.213 71.2103 132.606 77.6319 132.606 85.552C132.606 93.472 137.213 99.8925 142.895 99.8925C148.577 99.8925 153.184 93.4732 153.184 85.552C153.184 77.6308 148.577 71.2103 142.895 71.2103ZM142.895 99.1438C137.51 99.1438 133.145 93.058 133.145 85.552C133.145 78.0459 137.51 71.959 142.895 71.959C148.28 71.959 152.647 78.0448 152.647 85.552C152.647 93.0592 148.28 99.1438 142.895 99.1438Z" fill="#FCFBFC"/>
<path d="M140.318 68.8701C140.318 68.8701 140.285 67.4936 141.635 67.4361C142.987 67.3786 145.003 67.3866 145.32 68.1525C145.636 68.9196 142.93 69.5613 140.317 68.869L140.318 68.8701Z" fill="#FCFBFC"/>
<path d="M144.239 0C143.68 6.29165 141.015 37.4129 142.256 44.6476C143.029 49.1521 143.6 54.7124 143.594 59.3998C143.59 62.7543 143.291 65.6615 142.56 67.4153C142.508 67.5395 142.454 67.6579 142.398 67.7706C142.373 67.8212 142.346 67.8718 142.32 67.9201L143.337 68.4905C143.398 68.2536 143.457 68.0133 143.512 67.7706C143.536 67.6671 143.56 67.5625 143.582 67.4567C144.159 64.814 144.426 61.8619 144.456 58.819C144.502 54.1776 143.998 49.3269 143.202 45.0478C141.934 38.2294 144.786 5.54875 145.284 0H144.239Z" fill="#FCFBFC"/>
<path d="M151.067 59.9622C151.067 59.9622 145.688 64.8336 144.929 67.7707H141.216C141.216 67.7707 138.818 63.0074 135.093 59.3665C135.093 59.3665 136.634 59.0687 137.962 59.3665C138.168 59.4125 138.35 59.3964 138.513 59.3343C139.401 59.0112 139.75 57.4288 140.617 57.9325C141.646 58.5305 142.073 59.9565 143.616 59.393C145.157 58.8283 144.986 56.8411 146.228 57.8347C146.965 58.4247 147.069 58.964 147.371 59.2699C147.578 59.4815 147.878 59.585 148.541 59.5218C150.169 59.3654 150.725 59.2469 151.067 59.9611V59.9622Z" fill="#A5A5A5"/>
<path d="M142.028 67.7706H141.216C141.216 67.7706 138.818 63.0073 135.093 59.3664C135.093 59.3664 136.634 59.0685 137.962 59.3664C138.168 59.4124 138.35 59.3963 138.513 59.3342L142.028 67.7706Z" fill="#FCFBFC"/>
<path d="M151.067 59.9621C151.067 59.9621 145.688 64.8335 144.929 67.7706H143.913L147.371 59.271C147.578 59.4826 147.878 59.5861 148.541 59.5228C150.169 59.3664 150.725 59.248 151.067 59.9621Z" fill="#FCFBFC"/>
<path d="M22.9969 116.312C30.2492 116.312 36.1284 108.117 36.1284 98.0077C36.1284 87.8983 30.2492 79.7031 22.9969 79.7031C15.7445 79.7031 9.86536 87.8983 9.86536 98.0077C9.86536 108.117 15.7445 116.312 22.9969 116.312Z" fill="#FCFBFC"/>
<path d="M19.0819 102.66V93.6373C19.0819 92.2266 19.3556 91.051 19.9029 90.1105C20.4503 89.1505 21.2126 88.4255 22.19 87.9357C23.187 87.4458 24.3403 87.2009 25.6501 87.2009C26.9011 87.2009 28.0056 87.436 28.9635 87.9063C29.9213 88.3569 30.6739 89.0427 31.2213 89.9636C31.7686 90.8845 32.0423 92.0405 32.0423 93.4316L28.1425 93.1083C28.1425 92.305 27.8981 91.678 27.4094 91.2274C26.9402 90.7767 26.344 90.5514 25.6207 90.5514C24.8388 90.5514 24.2035 90.8257 23.7148 91.3743C23.2261 91.9229 22.9817 92.6773 22.9817 93.6373V102.307L19.0819 102.66ZM17.6451 106.569L17.5864 104.453C17.997 104.453 18.3488 104.277 18.642 103.924C18.9353 103.571 19.0819 103.15 19.0819 102.66L22.9817 102.307C22.9817 103.111 22.7374 103.845 22.2487 104.512C21.7795 105.158 21.1344 105.668 20.3134 106.04C19.5119 106.393 18.6225 106.569 17.6451 106.569ZM17 108.127V104.453H32.0423V108.127H17ZM17 99.8974V96.7527H28.9928V99.8974H17Z" fill="#A5A5A5"/>
<path d="M22.9961 82.6206C16.9002 82.6206 11.9576 89.5103 11.9576 98.0076C11.9576 106.505 16.9002 113.392 22.9961 113.392C29.092 113.392 34.0346 106.505 34.0346 98.0076C34.0346 89.5103 29.092 82.6206 22.9961 82.6206ZM22.9961 112.59C17.2194 112.59 12.5359 106.061 12.5359 98.0076C12.5359 89.9542 17.2194 83.4245 22.9961 83.4245C28.7727 83.4245 33.4587 89.953 33.4587 98.0076C33.4587 106.062 28.7736 112.59 22.9961 112.59Z" fill="#FCFBFC"/>
<path d="M20.2315 80.1101C20.2315 80.1101 20.196 78.6324 21.6455 78.5714C23.095 78.5105 25.2582 78.5174 25.5989 79.3408C25.9388 80.163 23.0348 80.8519 20.2315 80.1101Z" fill="#FCFBFC"/>
<path d="M24.0001 0C23.4894 7.58885 20.974 46.3312 22.3113 54.1224C23.1404 58.9547 23.7526 64.9221 23.746 69.951C23.741 73.5494 23.4209 76.667 22.6372 78.5484C22.5811 78.683 22.5233 78.8095 22.4623 78.9302C22.4351 78.9854 22.407 79.0395 22.379 79.0912L23.4704 79.7019C23.5364 79.4477 23.5983 79.1901 23.6585 78.9302C23.6841 78.8175 23.7097 78.706 23.7336 78.5921C24.3524 75.7585 24.6386 72.5926 24.6708 69.3277C24.7203 64.3494 24.1799 59.1433 23.3261 54.5514C22.0341 47.6054 24.7187 9.83825 25.4488 0L24.0001 0Z" fill="#FCFBFC"/>
<path d="M31.7633 70.5525C31.7633 70.5525 25.9925 75.7793 25.179 78.9303H21.1951C21.1951 78.9303 18.6219 73.8197 14.6256 69.9131C14.6256 69.9131 16.2789 69.5934 17.7029 69.9131C17.924 69.9626 18.1195 69.9453 18.2952 69.8786C19.2473 69.5313 19.6218 67.8351 20.5524 68.3744C21.6554 69.0161 22.115 70.5456 23.7699 69.9419C25.4232 69.3358 25.2392 67.2037 26.5724 68.2698C27.3636 68.9023 27.4742 69.4807 27.7992 69.8096C28.0203 70.0362 28.3429 70.1477 29.054 70.0799C30.7997 69.912 31.397 69.7855 31.7633 70.5514V70.5525Z" fill="#A5A5A5"/>
<path d="M22.0655 78.9302H21.1951C21.1951 78.9302 18.6219 73.8196 14.6256 69.9131C14.6256 69.9131 16.2789 69.5934 17.7029 69.9131C17.924 69.9625 18.1195 69.9453 18.2952 69.8786L22.0655 78.9302Z" fill="#FCFBFC"/>
<path d="M31.7634 70.5525C31.7634 70.5525 25.9925 75.7793 25.179 78.9303H24.0884L27.7992 69.8108C28.0203 70.0373 28.3429 70.1489 29.0541 70.081C30.7998 69.9131 31.3971 69.7866 31.7634 70.5525Z" fill="#FCFBFC"/>
<path d="M50.1344 77.2086C56.9885 77.2086 62.5449 69.4634 62.5449 59.9092C62.5449 50.355 56.9885 42.6097 50.1344 42.6097C43.2803 42.6097 37.7239 50.355 37.7239 59.9092C37.7239 69.4634 43.2803 77.2086 50.1344 77.2086Z" fill="#FCFBFC"/>
<path d="M46.0819 63.57V54.5472C46.0819 53.1365 46.3556 51.9609 46.9029 51.0204C47.4503 50.0604 48.2126 49.3354 49.19 48.8456C50.187 48.3558 51.3403 48.1108 52.6501 48.1108C53.9011 48.1108 55.0056 48.346 55.9635 48.8162C56.9213 49.2668 57.6739 49.9526 58.2213 50.8735C58.7686 51.7944 59.0423 52.9504 59.0423 54.3415L55.1425 54.0182C55.1425 53.2149 54.8981 52.5879 54.4094 52.1373C53.9402 51.6866 53.344 51.4613 52.6207 51.4613C51.8388 51.4613 51.2035 51.7356 50.7148 52.2842C50.2261 52.8328 49.9817 53.5872 49.9817 54.5472V63.2173L46.0819 63.57ZM44.6451 67.4788L44.5864 65.3628C44.997 65.3628 45.3488 65.1864 45.642 64.8337C45.9353 64.4811 46.0819 64.0598 46.0819 63.57L49.9817 63.2173C49.9817 64.0206 49.7374 64.7554 49.2487 65.4215C48.7795 66.0681 48.1344 66.5775 47.3134 66.9498C46.5119 67.3025 45.6225 67.4788 44.6451 67.4788ZM44 69.0365V65.3628H59.0423V69.0365H44ZM44 60.8073V57.6626H55.9928V60.8073H44Z" fill="#A5A5A5"/>
<path d="M50.1344 45.3674C44.3734 45.3674 39.7022 51.8787 39.7022 59.9092C39.7022 67.9396 44.3734 74.4498 50.1344 74.4498C55.8953 74.4498 60.5665 67.9408 60.5665 59.9092C60.5665 51.8776 55.8962 45.3674 50.1344 45.3674ZM50.1344 73.6908C44.6745 73.6908 40.2484 67.521 40.2484 59.9092C40.2484 52.2973 44.6745 46.1264 50.1344 46.1264C55.5942 46.1264 60.022 52.2962 60.022 59.9092C60.022 67.5222 55.5942 73.6908 50.1344 73.6908Z" fill="#FCFBFC"/>
<path d="M47.5217 42.9939C47.5217 42.9939 47.4878 41.5978 48.8581 41.5403C50.2285 41.4828 52.2728 41.4897 52.5946 42.2671C52.9163 43.0445 50.1707 43.6954 47.5225 42.9939H47.5217Z" fill="#FCFBFC"/>
<path d="M51.7168 32.8037C51.6863 35.8892 51.4165 38.8826 50.8316 41.561C50.8085 41.6679 50.7854 41.7737 50.7598 41.8795C50.7045 42.1256 50.6451 42.3683 50.5832 42.6086L49.5512 42.0313C49.5784 41.9819 49.6048 41.9313 49.6304 41.8795C49.6873 41.7657 49.7417 41.6461 49.7937 41.5196C50.5354 39.7417 50.839 36.7942 50.8431 33.3937C50.8489 28.6407 50.2706 23.0011 49.4868 18.4333C48.3566 11.8438 49.2121 3.128 49.5858 0H50.688C50.2838 3.2821 49.3012 12.6834 50.4463 18.8393C51.2531 23.1782 51.7638 28.0979 51.7168 32.8037Z" fill="#FCFBFC"/>
<path d="M58.4199 33.9618C58.4199 33.9618 52.9658 38.9011 52.1969 41.8796H48.4316C48.4316 41.8796 45.9995 37.0496 42.2227 33.3581C42.2227 33.3581 43.7852 33.0556 45.1308 33.3581C45.3395 33.4052 45.5243 33.388 45.691 33.3259C46.591 32.9981 46.9441 31.3939 47.8244 31.9045C48.8672 32.5117 49.3012 33.9561 50.8654 33.3857C52.4279 32.813 52.2538 30.7982 53.5136 31.8056C54.2611 32.4036 54.3658 32.951 54.6736 33.2615C54.8823 33.4754 55.1875 33.5812 55.8591 33.5168C57.5091 33.3581 58.0734 33.2385 58.4199 33.963V33.9618Z" fill="#A5A5A5"/>
<path d="M49.255 41.8796H48.4324C48.4324 41.8796 46.0003 37.0496 42.2235 33.3581C42.2235 33.3581 43.786 33.0556 45.1316 33.3581C45.3403 33.4052 45.5251 33.388 45.6918 33.3259L49.255 41.8796Z" fill="#FCFBFC"/>
<path d="M58.4199 33.9618C58.4199 33.9618 52.9658 38.901 52.1969 41.8795H51.1665L54.6735 33.2614C54.8823 33.4753 55.1875 33.5811 55.8591 33.5167C57.5091 33.358 58.0734 33.2384 58.4199 33.9629V33.9618Z" fill="#FCFBFC"/>
<path d="M84.2564 64.9026C90.0444 64.9026 94.7364 58.3621 94.7364 50.2941C94.7364 42.2261 90.0444 35.6857 84.2564 35.6857C78.4685 35.6857 73.7765 42.2261 73.7765 50.2941C73.7765 58.3621 78.4685 64.9026 84.2564 64.9026Z" fill="#FCFBFC"/>
<path d="M80.5224 52.3995V45.8015C80.5224 44.7699 80.7225 43.9102 81.1228 43.2224C81.523 42.5204 82.0805 41.9902 82.7953 41.632C83.5243 41.2738 84.3677 41.0947 85.3255 41.0947C86.2404 41.0947 87.0481 41.2667 87.7485 41.6105C88.449 41.9401 88.9993 42.4416 89.3996 43.115C89.7998 43.7884 90 44.6337 90 45.651L87.1481 45.4146C87.1481 44.8272 86.9694 44.3687 86.6121 44.0391C86.269 43.7096 85.833 43.5448 85.3041 43.5448C84.7323 43.5448 84.2677 43.7454 83.9103 44.1466C83.5529 44.5478 83.3742 45.0994 83.3742 45.8015V52.1416L80.5224 52.3995ZM79.4717 55.258L79.4288 53.7105C79.729 53.7105 79.9863 53.5816 80.2007 53.3237C80.4152 53.0658 80.5224 52.7577 80.5224 52.3995L83.3742 52.1416C83.3742 52.7291 83.1956 53.2664 82.8382 53.7535C82.4951 54.2263 82.0234 54.5989 81.423 54.8711C80.8369 55.129 80.1865 55.258 79.4717 55.258ZM79 56.397V53.7105H90V56.397H79ZM79 50.3793V48.0796H87.7699V50.3793H79Z" fill="#A5A5A5"/>
<path d="M84.2564 38.0145C79.3905 38.0145 75.4471 43.5126 75.4471 50.2942C75.4471 57.0757 79.3905 62.5727 84.2564 62.5727C89.1222 62.5727 93.0657 57.0769 93.0657 50.2942C93.0657 43.5115 89.1214 38.0145 84.2564 38.0145ZM84.2564 61.9322C79.6455 61.9322 75.9074 56.7215 75.9074 50.2942C75.9074 43.8668 79.6455 38.6562 84.2564 38.6562C88.8673 38.6562 92.6054 43.8657 92.6054 50.2942C92.6054 56.7227 88.8665 61.9322 84.2564 61.9322Z" fill="#FCFBFC"/>
<path d="M82.0496 36.0111C82.0496 36.0111 82.0215 34.8323 83.1782 34.7829C84.3348 34.7334 86.0615 34.7403 86.333 35.397C86.6044 36.0536 84.2861 36.6033 82.0496 36.0111Z" fill="#FCFBFC"/>
<path d="M83.759 0C83.429 2.8589 82.7879 9.9015 83.7095 15.2708C84.3711 19.1279 84.8595 23.889 84.8546 27.9025C84.8513 30.7752 84.5947 33.2638 83.9685 34.7657C83.924 34.8726 83.8786 34.9738 83.8299 35.0693C83.8085 35.113 83.7862 35.1567 83.7631 35.1981L84.6351 35.6857C84.6871 35.4833 84.7374 35.2774 84.7853 35.0693C84.8059 34.9807 84.8257 34.891 84.8447 34.8001C85.3388 32.5392 85.5674 30.0116 85.5929 27.4057C85.6317 23.4324 85.2002 19.2775 84.5188 15.6136C83.5849 10.5892 84.329 3.0038 84.6879 0L83.759 0Z" fill="#FCFBFC"/>
<path d="M91.2524 28.3831C91.2524 28.3831 86.6473 32.5541 85.998 35.0692H82.8185C82.8185 35.0692 80.765 30.9901 77.5756 27.8725C77.5756 27.8725 78.8948 27.6172 80.0316 27.8725C80.2082 27.9127 80.3641 27.8978 80.5043 27.8449C81.2642 27.5677 81.5628 26.2142 82.3053 26.6443C83.1856 27.1572 83.5519 28.3773 84.8727 27.8955C86.1919 27.4125 86.0459 25.7105 87.1093 26.5615C87.7404 27.0663 87.8287 27.5286 88.0886 27.7908C88.2651 27.9714 88.5225 28.0611 89.0901 28.0059C90.4835 27.8725 90.9604 27.7701 91.2524 28.3819V28.3831Z" fill="#A5A5A5"/>
<path d="M83.5131 35.0693H82.8185C82.8185 35.0693 80.765 30.9903 77.5756 27.8726C77.5756 27.8726 78.8948 27.6173 80.0316 27.8726C80.2082 27.9129 80.3641 27.8979 80.5043 27.845L83.5131 35.0682V35.0693Z" fill="#FCFBFC"/>
<path d="M91.2524 28.3832C91.2524 28.3832 86.6473 32.5542 85.998 35.0693H85.1276L88.0886 27.7921C88.2651 27.9726 88.5225 28.0623 89.0901 28.0071C90.4835 27.8737 90.9604 27.7714 91.2524 28.3832Z" fill="#FCFBFC"/>
<path d="M72.8194 148.373C72.8194 148.373 73.2361 149.041 73.8078 148.679C74.3787 148.317 75.028 148.191 75.3654 148.58C75.7028 148.969 78.0912 153.275 78.0912 154.288C78.0912 155.302 76.6111 157.582 76.0402 157.69C75.4693 157.798 72.5868 156.858 72.2494 155.844C71.9119 154.831 71.8336 153.156 71.8336 153.156L70.3659 151.566L72.8186 148.373H72.8194Z" fill="#FCFBFC"/>
</g>
<defs>
<clipPath id="clip0_323_20">
<rect width="165" height="230" rx="54" fill="white"/>
</clipPath>
</defs>
</svg>
