<svg width="89" height="23" viewBox="0 0 89 23" fill="none" xmlns="http://www.w3.org/2000/svg">
<path d="M5.3519 17.312C3.8959 17.312 2.70391 17.112 1.77591 16.712C0.847909 16.296 0.383911 15.672 0.383911 14.84C0.383911 14.168 0.455907 13.68 0.599907 13.376C0.759907 13.072 0.967907 12.92 1.22391 12.92C1.41591 12.92 1.64791 13.032 1.91991 13.256C2.20791 13.464 2.54391 13.704 2.92791 13.976C3.32791 14.248 3.75991 14.496 4.22391 14.72C4.70391 14.928 5.23191 15.032 5.80791 15.032C6.67191 15.032 7.26391 14.84 7.58391 14.456C7.91991 14.056 8.0879 13.632 8.0879 13.184C8.0879 12.736 7.98391 12.328 7.77591 11.96C7.56791 11.592 7.17591 11.216 6.59991 10.832L4.72791 9.58401C4.19991 9.23201 3.68791 8.84001 3.19191 8.40801C2.71191 7.97601 2.31191 7.48001 1.99191 6.92001C1.67191 6.36001 1.51191 5.72001 1.51191 5.00001C1.51191 4.00801 1.78391 3.16001 2.32791 2.45601C2.87191 1.75201 3.62391 1.21601 4.58391 0.848012C5.55991 0.480012 6.67991 0.296012 7.94391 0.296012C8.93591 0.296012 9.71991 0.360013 10.2959 0.488013C10.8879 0.600012 11.3119 0.784012 11.5679 1.04001C11.8239 1.28001 11.9519 1.59201 11.9519 1.97601C11.9519 2.42401 11.8799 2.84001 11.7359 3.22401C11.5919 3.60801 11.3999 3.80001 11.1599 3.80001C10.9999 3.80001 10.8079 3.72801 10.5839 3.58401C10.3599 3.44001 10.0799 3.29601 9.74391 3.15201C9.39191 2.99201 9.01591 2.86401 8.61591 2.76801C8.23191 2.65601 7.80791 2.60001 7.34391 2.60001C6.73591 2.60001 6.26391 2.78401 5.92791 3.15201C5.60791 3.50401 5.44791 3.92801 5.44791 4.42401C5.44791 4.77601 5.55191 5.11201 5.75991 5.43201C5.96791 5.75201 6.34391 6.05601 6.88791 6.34401L8.61591 7.23201C9.36791 7.61601 10.0159 8.00801 10.5599 8.40801C11.1039 8.79201 11.5279 9.26401 11.8319 9.82401C12.1359 10.384 12.2879 11.112 12.2879 12.008C12.2879 13.704 11.6639 15.016 10.4159 15.944C9.18391 16.856 7.49591 17.312 5.3519 17.312Z" fill="#28292C"/>
<path d="M15.6265 17.384C14.8585 17.384 14.2505 17.16 13.8025 16.712C13.3545 16.264 13.1945 15.56 13.3225 14.6L14.2345 7.76001H13.6105C13.2585 7.76001 13.0825 7.60001 13.0825 7.28001C13.0825 7.08801 13.1945 6.81601 13.4185 6.46401C13.6585 6.09601 13.9625 5.71201 14.3305 5.31201C14.7145 4.89601 15.1065 4.50401 15.5065 4.13601C15.9225 3.76801 16.3145 3.46401 16.6825 3.22401C17.0505 2.98401 17.3465 2.86401 17.5705 2.86401C17.8265 2.86401 18.0105 2.95201 18.1225 3.12801C18.2505 3.28801 18.2985 3.53601 18.2665 3.87201L18.0745 5.60001H20.4025C20.6425 5.60001 20.7785 5.64001 20.8105 5.72001C20.8425 5.80001 20.8345 5.92801 20.7865 6.10401C20.5785 6.76001 20.3865 7.20001 20.2105 7.42401C20.0505 7.64801 19.7465 7.76001 19.2985 7.76001H17.7385L17.1625 12.416C17.1305 12.72 17.0985 13.008 17.0665 13.28C17.0505 13.552 17.0425 13.8 17.0425 14.024C17.0425 14.232 17.0905 14.416 17.1865 14.576C17.2985 14.72 17.4985 14.792 17.7865 14.792C18.1545 14.792 18.4745 14.712 18.7465 14.552C19.0345 14.392 19.2505 14.312 19.3945 14.312C19.6185 14.312 19.7305 14.432 19.7305 14.672C19.7305 14.88 19.6425 15.136 19.4665 15.44C19.2905 15.744 19.0265 16.048 18.6745 16.352C18.3385 16.64 17.9145 16.88 17.4025 17.072C16.8905 17.28 16.2985 17.384 15.6265 17.384Z" fill="#28292C"/>
<path d="M24.2405 17.384C23.0085 17.384 21.9925 17 21.1925 16.232C20.4085 15.448 20.0165 14.376 20.0165 13.016C20.0165 11.88 20.1925 10.84 20.5445 9.89601C20.8965 8.95201 21.3845 8.12801 22.0085 7.42401C22.6485 6.72001 23.3765 6.17601 24.1925 5.79201C25.0245 5.40801 25.9045 5.21601 26.8325 5.21601C27.8565 5.21601 28.7205 5.45601 29.4245 5.93601C30.1285 6.40001 30.4805 7.08001 30.4805 7.97601C30.4805 8.84001 30.1525 9.60001 29.4965 10.256C28.8565 10.912 27.9605 11.48 26.8085 11.96C25.6565 12.424 24.3205 12.816 22.8005 13.136L22.4885 11.456C23.2565 11.36 23.9605 11.184 24.6005 10.928C25.2565 10.656 25.7925 10.304 26.2085 9.87201C26.6245 9.44001 26.8485 8.94401 26.8805 8.38401C26.9125 8.00001 26.8565 7.68001 26.7125 7.42401C26.5685 7.15201 26.3525 7.01601 26.0645 7.01601C25.7125 7.01601 25.3525 7.24801 24.9845 7.71201C24.6325 8.17601 24.3365 8.79201 24.0965 9.56001C23.8565 10.328 23.7365 11.16 23.7365 12.056C23.7365 12.872 23.8325 13.528 24.0245 14.024C24.2165 14.504 24.6405 14.744 25.2965 14.744C25.9525 14.744 26.5845 14.616 27.1925 14.36C27.8165 14.088 28.3285 13.824 28.7285 13.568C28.8565 13.488 28.9845 13.416 29.1125 13.352C29.2405 13.272 29.3525 13.232 29.4485 13.232C29.5605 13.232 29.6485 13.28 29.7125 13.376C29.7765 13.456 29.8085 13.56 29.8085 13.688C29.8085 13.976 29.6885 14.328 29.4485 14.744C29.2085 15.16 28.8485 15.568 28.3685 15.968C27.9045 16.368 27.3285 16.704 26.6405 16.976C25.9525 17.248 25.1525 17.384 24.2405 17.384Z" fill="#28292C"/>
<path d="M34.4384 16.232L33.5264 12.8C34.1184 11.264 34.7184 9.93601 35.3264 8.81601C35.9344 7.68001 36.5584 6.80001 37.1984 6.17601C37.8384 5.55201 38.4864 5.24001 39.1424 5.24001C39.5584 5.24001 39.9024 5.35201 40.1744 5.57601C40.4624 5.80001 40.6064 6.19201 40.6064 6.75201C40.6064 7.12001 40.5584 7.48801 40.4624 7.85601C40.3664 8.22401 40.2304 8.52801 40.0544 8.76801C39.8784 9.00801 39.6704 9.12801 39.4304 9.12801C39.2224 9.12801 38.9664 9.05601 38.6624 8.91201C38.3744 8.75201 38.0464 8.67201 37.6784 8.67201C37.4384 8.67201 37.1584 8.86401 36.8384 9.24801C36.5344 9.61601 36.2144 10.136 35.8784 10.808C35.5584 11.48 35.2704 12.28 35.0144 13.208C34.7584 14.12 34.5664 15.128 34.4384 16.232ZM31.4384 17.336C31.2304 17.336 31.0624 17.296 30.9344 17.216C30.8224 17.152 30.7504 16.968 30.7184 16.664C30.7024 16.36 30.7344 15.872 30.8144 15.2L31.9424 5.21601H34.2944C34.7264 5.21601 35.0304 5.39201 35.2064 5.74401C35.3984 6.09601 35.4944 6.49601 35.4944 6.94401C35.4944 7.15201 35.4064 7.48001 35.2304 7.92801C35.0704 8.36001 34.8864 8.82401 34.6784 9.32001C34.4864 9.80001 34.3344 10.224 34.2224 10.592L33.6464 12.56L34.8464 12.416L34.4384 16.232C34.4224 16.456 34.2784 16.64 34.0064 16.784C33.7344 16.928 33.4144 17.04 33.0464 17.12C32.6784 17.2 32.3424 17.256 32.0384 17.288C31.7344 17.32 31.5344 17.336 31.4384 17.336Z" fill="#28292C"/>
<path d="M41.6142 17.336C41.0382 17.336 40.6542 17.192 40.4622 16.904C40.2702 16.6 40.1822 16.16 40.1982 15.584C40.2142 15.04 40.2542 14.392 40.3182 13.64C40.3982 12.888 40.4862 12.144 40.5822 11.408L41.4222 5.09601C41.5022 4.48801 41.4862 3.97601 41.3742 3.56001C41.2622 3.14401 41.1342 2.77601 40.9902 2.45601C40.8622 2.12001 40.7982 1.80001 40.7982 1.49601C40.7982 1.25601 40.9502 1.04801 41.2542 0.872012C41.5582 0.680013 41.9262 0.528013 42.3582 0.416012C42.8062 0.304013 43.2302 0.248013 43.6302 0.248013C44.2382 0.248013 44.6702 0.432013 44.9262 0.800013C45.1982 1.16801 45.3342 1.58401 45.3342 2.04801C45.3342 2.28801 45.3182 2.66401 45.2862 3.17601C45.2542 3.68801 45.1902 4.27201 45.0942 4.92801L44.3262 10.448C44.1662 11.6 44.0382 12.776 43.9422 13.976C43.8622 15.176 43.7822 16.296 43.7022 17.336H41.6142Z" fill="#28292C"/>
<path d="M47.4014 17.384C47.0974 17.384 46.8414 17.168 46.6334 16.736C46.4414 16.288 46.3454 15.792 46.3454 15.248C46.3454 14.88 46.3534 14.536 46.3694 14.216C46.4014 13.896 46.4494 13.464 46.5134 12.92L47.3774 5.21601H49.8254C50.2254 5.21601 50.5054 5.39201 50.6654 5.74401C50.8254 6.09601 50.9054 6.49601 50.9054 6.94401C50.9054 7.16801 50.8894 7.40801 50.8574 7.66401C50.8254 7.90401 50.7774 8.28001 50.7134 8.79201L50.2574 12.704C50.1774 13.488 50.0974 14.16 50.0174 14.72C49.9374 15.28 49.8654 15.776 49.8014 16.208C49.7534 16.624 49.7054 17.016 49.6574 17.384H47.4014ZM49.5134 4.42401C48.9534 4.42401 48.4654 4.23201 48.0494 3.84801C47.6494 3.46401 47.4494 2.96801 47.4494 2.36001C47.4494 1.62401 47.6814 1.05601 48.1454 0.656012C48.6254 0.240013 49.1774 0.0320129 49.8014 0.0320129C50.3774 0.0320129 50.8574 0.200013 51.2414 0.536012C51.6414 0.872013 51.8414 1.38401 51.8414 2.07201C51.8414 2.74401 51.6094 3.30401 51.1454 3.75201C50.6814 4.20001 50.1374 4.42401 49.5134 4.42401Z" fill="#28292C"/>
<path d="M53.1942 17.192C52.8262 17.192 52.5782 17.064 52.4502 16.808C52.3222 16.552 52.2582 16.208 52.2582 15.776C52.2582 15.456 52.2822 15.096 52.3302 14.696L53.8422 0.680013H58.9542C61.0822 0.680013 62.6422 1.00801 63.6342 1.66401C64.6422 2.32001 65.1462 3.40801 65.1462 4.92801C65.1462 5.85601 64.9382 6.70401 64.5222 7.47201C64.1222 8.24001 63.5942 8.90401 62.9382 9.46401C62.2822 10.024 61.5782 10.464 60.8262 10.784C60.0902 11.088 59.3862 11.24 58.7142 11.24C58.4742 11.24 58.2342 11.184 57.9942 11.072C57.7542 10.96 57.5542 10.816 57.3942 10.64C57.2342 10.448 57.1542 10.232 57.1542 9.99201C57.1542 9.81601 57.2102 9.68801 57.3222 9.60801C57.4342 9.52801 57.6342 9.44801 57.9222 9.36801C58.6582 9.16001 59.2342 8.85601 59.6502 8.45601C60.0822 8.05601 60.3942 7.58401 60.5862 7.04001C60.7782 6.48001 60.8742 5.88001 60.8742 5.24001C60.8742 4.52001 60.7302 3.97601 60.4422 3.60801C60.1542 3.22401 59.7542 2.96001 59.2422 2.81601C58.7302 2.67201 58.1462 2.60001 57.4902 2.60001L55.9062 17.192H53.1942Z" fill="#28292C"/>
<path d="M66.7357 17.384C65.8397 17.384 65.1357 17.016 64.6237 16.28C64.1277 15.528 63.8797 14.512 63.8797 13.232C63.8797 12.064 64.0637 10.992 64.4317 10.016C64.8157 9.04001 65.3277 8.20001 65.9677 7.49601C66.6237 6.77601 67.3597 6.22401 68.1757 5.84001C68.9917 5.44001 69.8397 5.24001 70.7197 5.24001C71.4077 5.24001 72.0317 5.33601 72.5917 5.52801C73.1677 5.70401 73.6557 5.88801 74.0557 6.08001L73.3597 9.29601C72.9437 9.00801 72.4797 8.71201 71.9677 8.40801C71.4557 8.08801 70.9597 7.82401 70.4797 7.61601C69.9997 7.39201 69.5917 7.28001 69.2557 7.28001C68.9357 7.28001 68.6317 7.53601 68.3437 8.04801C68.0717 8.56001 67.8477 9.20801 67.6717 9.99201C67.5117 10.76 67.4317 11.552 67.4317 12.368C67.4317 13.072 67.4717 13.664 67.5517 14.144C67.6317 14.608 67.7757 14.84 67.9837 14.84C68.1597 14.84 68.4557 14.632 68.8717 14.216C69.3037 13.784 69.8397 13.04 70.4797 11.984C71.1197 10.928 71.8317 9.45601 72.6157 7.56801L73.5517 9.87201C72.6877 11.792 71.8637 13.304 71.0797 14.408C70.2957 15.496 69.5437 16.264 68.8237 16.712C68.1197 17.16 67.4237 17.384 66.7357 17.384ZM72.8557 17.24C72.3437 17.24 71.9997 17.128 71.8237 16.904C71.6477 16.68 71.5597 16.392 71.5597 16.04C71.5597 15.768 71.5917 15.416 71.6557 14.984C71.7357 14.536 71.8317 14.056 71.9437 13.544C72.0557 13.032 72.1757 12.552 72.3037 12.104L72.8317 10.304L72.0157 9.68001L72.5917 6.05601C73.1037 5.97601 73.5917 5.87201 74.0557 5.74401C74.5357 5.61601 74.9597 5.50401 75.3277 5.40801C75.6957 5.31201 75.9677 5.26401 76.1437 5.26401C76.4477 5.26401 76.5997 5.42401 76.5997 5.74401C76.5997 5.88801 76.4957 6.24001 76.2877 6.80001C76.0957 7.36001 75.8877 8.07201 75.6637 8.93601C75.4397 9.78401 75.2717 10.736 75.1597 11.792L74.6317 17.24H72.8557Z" fill="#28292C"/>
<path d="M80.5454 22.304C79.5534 22.304 78.7694 22.16 78.1934 21.872C77.6174 21.584 77.2094 21.192 76.9694 20.696C76.7294 20.2 76.6094 19.632 76.6094 18.992C76.6094 18.672 76.6734 18.424 76.8014 18.248C76.9294 18.088 77.0494 18.008 77.1614 18.008C77.2894 18.008 77.4014 18.056 77.4974 18.152C77.5934 18.264 77.7374 18.384 77.9294 18.512C78.2334 18.704 78.5934 18.912 79.0094 19.136C79.4254 19.36 79.8654 19.552 80.3294 19.712C80.7934 19.872 81.2334 19.952 81.6494 19.952C81.8894 19.952 82.1533 19.856 82.4413 19.664C82.7293 19.472 83.0253 19.088 83.3293 18.512C83.6493 17.936 83.9614 17.072 84.2654 15.92L85.6813 10.448H85.8013C85.2413 12.016 84.6013 13.312 83.8813 14.336C83.1613 15.344 82.3853 16.088 81.5533 16.568C80.7373 17.048 79.9054 17.288 79.0574 17.288C78.3854 17.288 77.8894 17.104 77.5694 16.736C77.2494 16.368 77.0894 15.856 77.0894 15.2C77.0894 14.88 77.1054 14.528 77.1374 14.144C77.1854 13.76 77.2574 13.16 77.3534 12.344L78.2414 5.21601H80.4014C80.6734 5.21601 80.9294 5.37601 81.1694 5.69601C81.4254 6.00001 81.5533 6.37601 81.5533 6.82401C81.5533 7.04801 81.5374 7.32001 81.5054 7.64001C81.4894 7.96001 81.4574 8.32001 81.4094 8.72001C81.3774 9.10401 81.3294 9.51201 81.2654 9.94401L80.9534 12.032C80.8894 12.48 80.8414 12.84 80.8094 13.112C80.7774 13.368 80.7614 13.608 80.7614 13.832C80.7614 13.992 80.7774 14.144 80.8094 14.288C80.8574 14.416 80.9534 14.48 81.0974 14.48C81.2894 14.48 81.5373 14.32 81.8413 14C82.1453 13.68 82.4653 13.264 82.8013 12.752C83.1373 12.24 83.4493 11.688 83.7373 11.096C84.0413 10.504 84.2893 9.92801 84.4813 9.36801C84.6733 8.79201 84.7693 8.30401 84.7693 7.90401C84.7693 7.63201 84.7613 7.34401 84.7453 7.04001C84.7293 6.72001 84.7213 6.48001 84.7213 6.32001C84.7213 6.11201 84.8813 5.92801 85.2013 5.76801C85.5213 5.60801 85.9133 5.48001 86.3773 5.38401C86.8413 5.27201 87.2813 5.21601 87.6973 5.21601C88.0333 5.21601 88.2813 5.37601 88.4413 5.69601C88.6173 6.01601 88.6733 6.47201 88.6093 7.06401C88.5933 7.33601 88.5613 7.68001 88.5133 8.09601C88.4653 8.51201 88.4093 8.95201 88.3453 9.41601L87.5293 16.28C87.4013 17.384 87.1053 18.32 86.6413 19.088C86.1773 19.856 85.6093 20.472 84.9373 20.936C84.2813 21.416 83.5693 21.76 82.8013 21.968C82.0333 22.192 81.2814 22.304 80.5454 22.304Z" fill="#28292C"/>
<path d="M53.1943 17.192C52.8263 17.192 52.5783 17.064 52.4503 16.808C52.3223 16.552 52.2583 16.208 52.2583 15.776C52.2583 15.456 52.2823 15.096 52.3303 14.696L53.8423 0.680023H58.9543C61.0823 0.680023 62.6423 1.00802 63.6343 1.66402C64.6423 2.32002 65.1463 3.40802 65.1463 4.92802C65.1463 5.85602 64.9383 6.70402 64.5223 7.47202C64.1223 8.24002 63.5943 8.90402 62.9383 9.46402C62.2823 10.024 61.5783 10.464 60.8263 10.784C60.0903 11.088 59.3863 11.24 58.7143 11.24C58.4743 11.24 58.2343 11.184 57.9943 11.072C57.7543 10.96 57.5543 10.816 57.3943 10.64C57.2343 10.448 57.1543 10.232 57.1543 9.99202C57.1543 9.81602 57.2103 9.68802 57.3223 9.60802C57.4343 9.52802 57.6343 9.44802 57.9223 9.36802C58.6583 9.16002 59.2343 8.85602 59.6503 8.45602C60.0823 8.05602 60.3943 7.58402 60.5863 7.04002C60.7783 6.48002 60.8743 5.88002 60.8743 5.24002C60.8743 4.52002 60.7303 3.97602 60.4423 3.60802C60.1543 3.22402 59.7543 2.96002 59.2423 2.81602C58.7303 2.67202 58.1463 2.60002 57.4903 2.60002L55.9063 17.192H53.1943Z" fill="url(#paint0_linear_281_28)"/>
<defs>
<linearGradient id="paint0_linear_281_28" x1="58.7023" y1="0.680023" x2="58.7023" y2="17.192" gradientUnits="userSpaceOnUse">
<stop stop-color="white"/>
<stop offset="0.5" stop-color="#FF7A00"/>
<stop offset="1" stop-color="white"/>
</linearGradient>
</defs>
</svg>
